<svg xmlns="http://www.w3.org/2000/svg" width="29.999" height="23.173" viewBox="0 0 29.999 23.173">
  <g id="Automotive_icon" transform="translate(0 -56.489)">
    <path id="Path_1486" data-name="Path 1486" d="M35.934,69.369a4.394,4.394,0,0,0-.919-2.452,7.553,7.553,0,0,1-1.465-2.864A35.019,35.019,0,0,0,31.1,58.782,4.227,4.227,0,0,0,28,56.741a88.042,88.042,0,0,0-13.305,0,4.232,4.232,0,0,0-3.1,2.041,35.117,35.117,0,0,0-2.448,5.271A7.554,7.554,0,0,1,7.69,66.917a4.393,4.393,0,0,0-.918,2.452c-.093,1.932.467,2.357.968,6.73a.68.68,0,0,0,.677.6H34.291a.681.681,0,0,0,.677-.6c.141-1.226.558-3.714.558-3.714A9.107,9.107,0,0,0,35.934,69.369Z" transform="translate(-6.353)" fill="#e95353"/>
    <path id="Path_1487" data-name="Path 1487" d="M78.572,71.264a37.714,37.714,0,0,0-2.3-4.883,3.813,3.813,0,0,0-2.754-1.852,84.466,84.466,0,0,0-13.186,0,3.813,3.813,0,0,0-2.754,1.852,38.374,38.374,0,0,0-2.314,4.883A148.654,148.654,0,0,0,78.572,71.264Z" transform="translate(-51.92 -7.312)" fill="#168de2"/>
    <path id="Path_1488" data-name="Path 1488" d="M372.507,215.149a4.282,4.282,0,0,0-.8.353,9.865,9.865,0,0,1-1.3.623c-.746.283-.873.706-.873.706-.022.029-.044.058-.065.088a1.193,1.193,0,0,0,1.181,1.818,14.41,14.41,0,0,0,3.256-.87,1.167,1.167,0,0,0,.709-.8c.008-.035.016-.069.022-.1A1.639,1.639,0,0,0,372.507,215.149Z" transform="translate(-346.957 -148.999)" fill="#fff"/>
    <path id="Path_1489" data-name="Path 1489" d="M419.154,327.857h-1.615a.273.273,0,0,0-.193.466l1.615,1.615a.273.273,0,0,0,.466-.193V328.13A.273.273,0,0,0,419.154,327.857Z" transform="translate(-392.052 -254.97)" fill="#ffe21f"/>
    <path id="Path_1490" data-name="Path 1490" d="M414.683,330.613a.682.682,0,0,1-.678.6H410.9v1.8a1.157,1.157,0,0,0,1.157,1.157h1.952a1.157,1.157,0,0,0,1.157-1.157v-5.647C415.034,328.157,414.785,329.72,414.683,330.613Z" transform="translate(-386.068 -254.517)" fill="#454545"/>
    <path id="Path_1491" data-name="Path 1491" d="M449.2,148.121a.932.932,0,0,0-.919-.705h-.78a.9.9,0,0,0-.9.9v.556h-.413l.237.563h.909a3.276,3.276,0,0,0,1.364-.3A.9.9,0,0,0,449.2,148.121Z" transform="translate(-419.218 -85.432)" fill="#ed6262"/>
    <circle id="Ellipse_37" data-name="Ellipse 37" cx="1.137" cy="1.137" r="1.137" transform="translate(24.925 66.469)" fill="#ffbd49"/>
    <circle id="Ellipse_38" data-name="Ellipse 38" cx="0.835" cy="0.835" r="0.835" transform="translate(22.939 67.668)" fill="#ffdb6f"/>
    <path id="Path_1492" data-name="Path 1492" d="M152.06,255.324l-1.306,2.274H140.145l-1.306-2.274Z" transform="translate(-130.45 -186.82)" fill="#6f6f6f"/>
    <path id="Path_1493" data-name="Path 1493" d="M43.142,216.914c-.02-.03-.041-.059-.065-.088,0,0-.127-.423-.873-.706a9.92,9.92,0,0,1-1.3-.623,4.308,4.308,0,0,0-.8-.353,1.64,1.64,0,0,0-2.128,1.82c.007.035.014.068.022.1a1.167,1.167,0,0,0,.709.8,14.407,14.407,0,0,0,3.257.87A1.193,1.193,0,0,0,43.142,216.914Z" transform="translate(-35.653 -148.995)" fill="#fff"/>
    <path id="Path_1494" data-name="Path 1494" d="M45.324,327.857H43.709a.272.272,0,0,0-.273.273v1.615a.273.273,0,0,0,.466.193l1.615-1.615A.273.273,0,0,0,45.324,327.857Z" transform="translate(-40.812 -254.97)" fill="#ffe21f"/>
    <path id="Path_1495" data-name="Path 1495" d="M46.538,330.671c-1.682-2.91-3.616-2.819-3.616-2.819H28.642s-1.933-.091-3.616,2.819H22.119l.036.375a.682.682,0,0,0,.68.62h25.9a.682.682,0,0,0,.68-.62l.036-.375Z" transform="translate(-20.783 -254.965)" fill="#777"/>
    <path id="Path_1496" data-name="Path 1496" d="M16.14,331.235a.682.682,0,0,1-.678-.6c-.1-.893-.353-2.457-.48-3.238v5.647a1.157,1.157,0,0,0,1.157,1.157h1.952a1.157,1.157,0,0,0,1.157-1.157v-1.8H16.14Z" transform="translate(-14.077 -254.533)" fill="#454545"/>
    <path id="Path_1497" data-name="Path 1497" d="M2.624,148.877v-.556a.9.9,0,0,0-.9-.9H.941a.932.932,0,0,0-.919.705.9.9,0,0,0,.506,1.021,3.279,3.279,0,0,0,1.364.3H2.8l.237-.563H2.624Z" transform="translate(0 -85.432)" fill="#ed6262"/>
    <circle id="Ellipse_39" data-name="Ellipse 39" cx="1.137" cy="1.137" r="1.137" transform="translate(2.799 66.469)" fill="#ffbd49"/>
    <circle id="Ellipse_40" data-name="Ellipse 40" cx="0.835" cy="0.835" r="0.835" transform="translate(5.39 67.668)" fill="#ffdb6f"/>
    <g id="Group_4520" data-name="Group 4520" transform="translate(8.611 73.683)">
      <path id="Path_1498" data-name="Path 1498" d="M154.95,341.029H142.858a.342.342,0,1,0,0,.684h12.091a.342.342,0,0,0,0-.684Z" transform="translate(-142.516 -341.029)" fill="#6f6f6f"/>
      <path id="Path_1499" data-name="Path 1499" d="M154.95,363.635H142.858a.342.342,0,0,0,0,.684h12.091a.342.342,0,0,0,0-.684Z" transform="translate(-142.516 -362.269)" fill="#6f6f6f"/>
    </g>
    <path id="Path_1500" data-name="Path 1500" d="M77.292,86.354v.117a.828.828,0,0,1-.868.83.866.866,0,0,1-.783-.878V84.741a.694.694,0,0,0-.727-.688h-.028a.7.7,0,0,0-.727.688v1.522a.828.828,0,0,1-.878.82.857.857,0,0,1-.783-.868V84.892a.735.735,0,0,0-.736-.727h-.056a.693.693,0,0,0-.689.689v1.72a.837.837,0,0,1-.878.83.858.858,0,0,1-.773-.878V84.221a.658.658,0,0,0-.7-.651h-.056a.694.694,0,0,0-.7.689v2.358a.825.825,0,0,1-1.65.028V84.666a.867.867,0,0,0-.783-.878.829.829,0,0,0-.868.83L64.6,86.447a.828.828,0,0,1-.868.83.859.859,0,0,1-.778-.843V84.288a.859.859,0,0,0-.78-.87.83.83,0,0,0-.871.828v2.247a.835.835,0,0,1-.873.808.858.858,0,0,1-.773-.878V84.741a.7.7,0,0,0-.736-.688h-.019a.7.7,0,0,0-.736.688v1.522a.82.82,0,0,1-.868.82.839.839,0,0,1-.769-.757c-.436.9-.868,1.881-1.288,2.925a148.421,148.421,0,0,0,23.313,0Q77.931,87.681,77.292,86.354Z" transform="translate(-51.907 -25.301)" fill="#3aa2eb"/>
  </g>
</svg>
