<svg xmlns="http://www.w3.org/2000/svg" width="29.999" height="19.865" viewBox="0 0 29.999 19.865">
  <g id="E-Rickshaw_icon" transform="translate(0 -79.101)">
    <path id="Path_1468" data-name="Path 1468" d="M394.7,317.048a2.227,2.227,0,1,0,2.227-2.227A2.226,2.226,0,0,0,394.7,317.048Z" transform="translate(-369.411 -220.619)" fill="#2f4859"/>
    <path id="Path_1469" data-name="Path 1469" d="M407.275,328.822a1.421,1.421,0,1,0,2.841,0,1.421,1.421,0,0,0-2.841,0Z" transform="translate(-381.184 -232.402)" fill="#64798a"/>
    <path id="Path_1470" data-name="Path 1470" d="M407.276,329.727a1.112,1.112,0,0,0,.041.321.431.431,0,0,1,.418.729,1.439,1.439,0,0,0,.54.316.433.433,0,0,1,.846.005,1.387,1.387,0,0,0,.54-.321.44.44,0,0,1-.081-.53.446.446,0,0,1,.5-.2,1.111,1.111,0,0,0,.041-.321,1.2,1.2,0,0,0-.036-.306.434.434,0,0,1-.423-.734,1.5,1.5,0,0,0-.54-.311.433.433,0,0,1-.846.005,1.479,1.479,0,0,0-.545.311.444.444,0,0,1,.087.535.462.462,0,0,1-.5.194A1.2,1.2,0,0,0,407.276,329.727Z" transform="translate(-381.185 -233.307)" fill="#ebf0f3"/>
    <g id="Group_4519" data-name="Group 4519" transform="translate(25.319 92.869)">
      <path id="Path_1471" data-name="Path 1471" d="M395.221,294.339l1.353,2.423h.781l-1.529-2.738Z" transform="translate(-395.221 -294.024)" fill="#d5d6db"/>
      <path id="Path_1472" data-name="Path 1472" d="M406.1,327.821a1.6,1.6,0,1,1,1.6-1.6A1.6,1.6,0,0,1,406.1,327.821Zm0-2.8a1.2,1.2,0,1,0,1.2,1.2A1.2,1.2,0,0,0,406.1,325.022Z" transform="translate(-403.903 -322.662)" fill="#d5d6db"/>
    </g>
    <path id="Path_1473" data-name="Path 1473" d="M375.435,268.009a6.026,6.026,0,0,0-6.356,1.707v-.143c0-.833.608-1.277.72-1.762.027-.126.06-.231.093-.337s.067-.209.1-.3a3.038,3.038,0,0,1,.242-.49,1.755,1.755,0,0,1,.6-.614,1.906,1.906,0,0,1,.721-.213,3.08,3.08,0,0,1,1.681.337c.154.076.313.164.477.265s.329.218.5.358a7.409,7.409,0,0,1,1.125,1.083Z" transform="translate(-345.435 -174.774)" fill="#2d93ba"/>
    <path id="Path_1474" data-name="Path 1474" d="M313.24,211.625a.344.344,0,0,1-.229.089.338.338,0,0,1-.253-.113l-.975-1.077a2.833,2.833,0,0,1-2.3.373.342.342,0,0,1,.157-.665c.021.005,1.472.321,1.8-.392a.342.342,0,0,1,.563-.085l1.256,1.388A.343.343,0,0,1,313.24,211.625Z" transform="translate(-289.414 -122.179)" fill="#d5d6db"/>
    <path id="Path_1475" data-name="Path 1475" d="M229.85,197.8v.683a3.064,3.064,0,0,1-.617.283,4.428,4.428,0,0,1-.617.162,5.617,5.617,0,0,1-1.234.1,7.288,7.288,0,0,1-1.234-.131,4.69,4.69,0,0,1-1.234-.412l-.307-.16-.034-.182a47.674,47.674,0,0,1,0-5.553h.683a7.527,7.527,0,0,1,.217,1.388c.037.463.035.924.027,1.387s-.03.926-.067,1.388c-.026.287-.055.572-.093.859a5.528,5.528,0,0,1,.808-.224,7.15,7.15,0,0,1,1.234-.132,5.621,5.621,0,0,1,1.234.1,4.253,4.253,0,0,1,.617.164A3,3,0,0,1,229.85,197.8Z" transform="translate(-210.109 -106.22)" fill="#2f4859"/>
    <rect id="Rectangle_3851" data-name="Rectangle 3851" width="9.676" height="2.202" transform="translate(13.791 91.986)" fill="#dc8744"/>
    <path id="Path_1476" data-name="Path 1476" d="M15.627,109.775v-2H27.334v2h.683v-8.5h-.683v4.506H15.627V99.672h-.683v10.1Zm0-3.541H27.334v1.085H15.627Z" transform="translate(-13.987 -19.253)" fill="#d5d6db"/>
    <path id="Path_1477" data-name="Path 1477" d="M359.221,142.238c0,1.122.3,3.185.3,5.547,0,3.559-.679,6.443,0,6.443s2.458-2.884,2.458-6.443a10.755,10.755,0,0,0-1.509-5.547Z" transform="translate(-336.208 -59.092)" fill="#27a2db"/>
    <path id="Path_1478" data-name="Path 1478" d="M14.508,248.532V255.6H1.3a1.3,1.3,0,0,1-1.3-1.3v-5.761Z" transform="translate(0 -158.577)" fill="#fcd462"/>
    <path id="Path_1479" data-name="Path 1479" d="M0,79.1c0,.007,0,.014,0,.022a2.126,2.126,0,0,0,1.852,2.149c9.811,1.342,21.864,3.538,23.782,1.874A91.413,91.413,0,0,0,0,79.1Z" transform="translate(0)" fill="#e56353"/>
    <path id="Path_1480" data-name="Path 1480" d="M56.38,313.9a2.713,2.713,0,0,1-.015.281H50.848a2.712,2.712,0,0,1-.015-.281,2.774,2.774,0,1,1,5.547,0Z" transform="translate(-47.577 -217.16)" fill="#64798a"/>
    <path id="Path_1481" data-name="Path 1481" d="M59.362,321.888a2.227,2.227,0,1,0,2.227-2.227A2.226,2.226,0,0,0,59.362,321.888Z" transform="translate(-55.559 -225.149)" fill="#2f4859"/>
    <path id="Path_1482" data-name="Path 1482" d="M71.941,333.662a1.421,1.421,0,1,0,2.841,0,1.421,1.421,0,0,0-2.841,0Z" transform="translate(-67.333 -236.932)" fill="#64798a"/>
    <path id="Path_1483" data-name="Path 1483" d="M71.942,334.567a1.112,1.112,0,0,0,.041.321.446.446,0,0,1,.5.2.441.441,0,0,1-.081.53,1.439,1.439,0,0,0,.54.316.433.433,0,0,1,.846.005,1.387,1.387,0,0,0,.54-.321.44.44,0,0,1-.081-.53.446.446,0,0,1,.5-.2,1.112,1.112,0,0,0,.041-.321,1.2,1.2,0,0,0-.036-.306.434.434,0,0,1-.423-.734,1.5,1.5,0,0,0-.54-.311.433.433,0,0,1-.846.005,1.479,1.479,0,0,0-.545.311.444.444,0,0,1,.087.535.462.462,0,0,1-.5.194A1.2,1.2,0,0,0,71.942,334.567Z" transform="translate(-67.333 -237.837)" fill="#ebf0f3"/>
    <path id="Path_1484" data-name="Path 1484" d="M216.553,309.1v1.615a1.57,1.57,0,0,1-1.57,1.57h-9.83V309.1Z" transform="translate(-192.011 -215.266)" fill="#f7be56"/>
    <path id="Path_1485" data-name="Path 1485" d="M381.62,229.292c0,.651-.193,1.178-.429,1.178s-.427-.527-.427-1.178.191-1.177.427-1.177S381.62,228.642,381.62,229.292Z" transform="translate(-356.372 -139.468)" fill="#ebf0f3"/>
  </g>
</svg>
