<svg id="Inverter-Battery_icon" xmlns="http://www.w3.org/2000/svg" width="30" height="30" viewBox="0 0 30 30">
  <path id="Path_1446" data-name="Path 1446" d="M24,152H51v17H24Z" transform="translate(-22.5 -142.5)" fill="#87ced9"/>
  <path id="Path_1447" data-name="Path 1447" d="M8,104H37v3H8Z" transform="translate(-7.5 -97.5)" fill="#4398d1"/>
  <path id="Path_1448" data-name="Path 1448" d="M408,104h4v3h-4Z" transform="translate(-382.5 -97.5)" fill="#3e8cc7"/>
  <path id="Path_1449" data-name="Path 1449" d="M156,169h18.75V152H173Z" transform="translate(-146.25 -142.5)" fill="#71c4d1"/>
  <path id="Path_1450" data-name="Path 1450" d="M48,56h3v3H48Z" transform="translate(-45 -52.5)" fill="#dedede"/>
  <path id="Path_1451" data-name="Path 1451" d="M8,424H37v3H8Z" transform="translate(-7.5 -397.5)" fill="#4398d1"/>
  <path id="Path_1452" data-name="Path 1452" d="M384,56h3v3h-3Z" transform="translate(-360 -52.5)" fill="#dedede"/>
  <path id="Path_1453" data-name="Path 1453" d="M154,8h-9a1,1,0,0,0-1,1v5h2V10h8v4h2V9a1,1,0,0,0-1-1Z" transform="translate(-135 -7.5)" fill="#4398d1"/>
  <path id="Path_1454" data-name="Path 1454" d="M72,200H93.5v11H72Z" transform="translate(-67.5 -187.5)" fill="#dedede"/>
  <path id="Path_1455" data-name="Path 1455" d="M173.5,190l1.25-5,.25-1-1,1-6,6,3.5.042L170.251,196,170,197l1-1,6-6Z" transform="translate(-157.5 -172.5)" fill="#fdb62f"/>
  <path id="Path_1456" data-name="Path 1456" d="M99,225H98v-1H97v1H96v1h1v1h1v-1h1Z" transform="translate(-90 -210)" fill="#de4c3c"/>
  <path id="Path_1457" data-name="Path 1457" d="M336,240h3v1h-3Z" transform="translate(-315 -225)" fill="#2a7db8"/>
  <g id="Group_4518" data-name="Group 4518" transform="translate(9 5)">
    <path id="Path_1458" data-name="Path 1458" d="M144,80h2v1.5h-2Z" transform="translate(-144 -80)" fill="#3e8cc7"/>
    <path id="Path_1459" data-name="Path 1459" d="M304,80h2v1.5h-2Z" transform="translate(-294 -80)" fill="#3e8cc7"/>
    <path id="Path_1460" data-name="Path 1460" d="M408,424h4v3h-4Z" transform="translate(-391.5 -402.5)" fill="#3e8cc7"/>
  </g>
  <path id="Path_1461" data-name="Path 1461" d="M24,152H51v1.5H24Z" transform="translate(-22.5 -142.5)" fill="#71c4d1"/>
  <path id="Path_1462" data-name="Path 1462" d="M29.5,6h-2V3.5A.5.5,0,0,0,27,3H24a.5.5,0,0,0-.5.5V6h-2V1.5A1.5,1.5,0,0,0,20,0H10A1.5,1.5,0,0,0,8.5,1.5V6h-2V3.5A.5.5,0,0,0,6,3H3a.5.5,0,0,0-.5.5V6H.5a.5.5,0,0,0-.5.5v3a.5.5,0,0,0,.5.5H1V26H.5a.5.5,0,0,0-.5.5v3a.5.5,0,0,0,.5.5h29a.5.5,0,0,0,.5-.5v-3a.5.5,0,0,0-.5-.5H29V10h.5a.5.5,0,0,0,.5-.5v-3A.5.5,0,0,0,29.5,6Zm-5-2h2V6h-2ZM9.5,1.5A.5.5,0,0,1,10,1H20a.5.5,0,0,1,.5.5V6h-1V2.5A.5.5,0,0,0,19,2H11a.5.5,0,0,0-.5.5V6h-1Zm9,1.5V6h-7V3ZM3.5,4h2V6h-2ZM29,29H1V27H29ZM2,26V10H28V26ZM29,9H1V7H29Z"/>
  <path id="Path_1463" data-name="Path 1463" d="M65,193h9v-1H64.5a.5.5,0,0,0-.5.5v11a.5.5,0,0,0,.5.5H71v-1H65Z" transform="translate(-60 -180)"/>
  <path id="Path_1464" data-name="Path 1464" d="M273,192h-6.5v1h6v10H264v1h9a.5.5,0,0,0,.5-.5v-11A.5.5,0,0,0,273,192Z" transform="translate(-247.5 -180)"/>
  <path id="Path_1465" data-name="Path 1465" d="M169.963,182.313A.5.5,0,0,0,169.5,182h-2.859l1.344-5.379a.5.5,0,0,0-.839-.475l-7,7a.5.5,0,0,0,.35.854l2.867.034-1.348,5.344a.5.5,0,0,0,.839.475l7-7A.5.5,0,0,0,169.963,182.313Zm-6.535,5.557,1.058-4.2a.5.5,0,0,0-.479-.622l-2.313-.027,4.884-4.884-1.062,4.25A.5.5,0,0,0,166,183h2.293Z" transform="translate(-150.001 -165.005)"/>
  <path id="Path_1466" data-name="Path 1466" d="M98,227v-1h1v-1H98v-1H97v1H96v1h1v1Z" transform="translate(-90 -210)"/>
  <path id="Path_1467" data-name="Path 1467" d="M336,240h3v1h-3Z" transform="translate(-315 -225)"/>
</svg>
