<svg xmlns="http://www.w3.org/2000/svg" width="30" height="22.176" viewBox="0 0 30 22.176">
  <g id="Microtek-Inverter_icon" transform="translate(0 -66.77)">
    <g id="Group_4509" data-name="Group 4509" transform="translate(8.964 66.77)">
      <g id="Group_4506" data-name="Group 4506">
        <path id="Path_1420" data-name="Path 1420" d="M153.435,69.734a.453.453,0,0,1-.453-.453V67.223a.453.453,0,0,1,.905,0v2.058A.453.453,0,0,1,153.435,69.734Z" transform="translate(-152.982 -66.77)" fill="#eab14d"/>
      </g>
      <g id="Group_4507" data-name="Group 4507" transform="translate(5.584)">
        <path id="Path_1421" data-name="Path 1421" d="M248.727,69.734a.453.453,0,0,1-.453-.453V67.223a.453.453,0,1,1,.905,0v2.058A.453.453,0,0,1,248.727,69.734Z" transform="translate(-248.274 -66.77)" fill="#eab14d"/>
      </g>
      <g id="Group_4508" data-name="Group 4508" transform="translate(11.167)">
        <path id="Path_1422" data-name="Path 1422" d="M344.019,69.734a.453.453,0,0,1-.453-.453V67.223a.453.453,0,0,1,.905,0v2.058A.453.453,0,0,1,344.019,69.734Z" transform="translate(-343.566 -66.77)" fill="#eab14d"/>
      </g>
    </g>
    <g id="Group_4510" data-name="Group 4510" transform="translate(0.93 72.747)">
      <path id="Path_1423" data-name="Path 1423" d="M43.044,184.977H16.857a.976.976,0,0,1-.976-.976V168.779H44.02V184A.976.976,0,0,1,43.044,184.977Z" transform="translate(-15.881 -168.779)" fill="#80b4fb"/>
      <path id="Path_1424" data-name="Path 1424" d="M15.88,168.779v1.646H42.423a.446.446,0,0,1,.446.446V184a.976.976,0,0,1-.976.976h1.15a.976.976,0,0,0,.976-.976V168.779Z" transform="translate(-15.88 -168.779)" fill="#61a2f9"/>
    </g>
    <path id="Path_1425" data-name="Path 1425" d="M100.1,263.369H79.407V252.9a.845.845,0,0,1,.845-.845h19a.845.845,0,0,1,.845.845Z" transform="translate(-74.754 -174.424)" fill="#9dc6fb"/>
    <path id="Path_1426" data-name="Path 1426" d="M396.327,252.049h-1.359a.845.845,0,0,1,.845.846v10.474h1.359V252.895A.846.846,0,0,0,396.327,252.049Z" transform="translate(-371.825 -174.423)" fill="#80b4fb"/>
    <path id="Path_1427" data-name="Path 1427" d="M129.08,293H113.16a.435.435,0,0,1-.435-.435v-6.516a.435.435,0,0,1,.435-.435H129.08a.435.435,0,0,1,.435.435v6.516A.435.435,0,0,1,129.08,293Z" transform="translate(-106.12 -206.016)" fill="#e7ecf6"/>
    <path id="Path_1428" data-name="Path 1428" d="M370.978,285.61h-1.3a.435.435,0,0,1,.435.435v6.516a.435.435,0,0,1-.435.435h1.3a.435.435,0,0,0,.435-.435v-6.516A.435.435,0,0,0,370.978,285.61Z" transform="translate(-348.018 -206.017)" fill="#d8e2f1"/>
    <path id="Path_1429" data-name="Path 1429" d="M29.621,152.242H.379A.379.379,0,0,1,0,151.863v-.912a.379.379,0,0,1,.379-.379H29.621a.379.379,0,0,1,.379.379v.912A.379.379,0,0,1,29.621,152.242Z" transform="translate(0 -78.892)" fill="#365e7d"/>
    <path id="Path_1430" data-name="Path 1430" d="M492.766,150.572v1.67h.748a.379.379,0,0,0,.379-.379v-.912a.379.379,0,0,0-.379-.379Z" transform="translate(-463.893 -78.892)" fill="#2b4d66"/>
    <path id="Path_1431" data-name="Path 1431" d="M122.991,124.5H105.335v-1a.623.623,0,0,1,.623-.623h16.41a.623.623,0,0,1,.623.623Z" transform="translate(-99.163 -52.821)" fill="#c3d5ef"/>
    <path id="Path_1432" data-name="Path 1432" d="M376.137,122.879H374.9a.623.623,0,0,1,.623.623v1h1.238v-1A.623.623,0,0,0,376.137,122.879Z" transform="translate(-352.932 -52.821)" fill="#b7c8ea"/>
    <path id="Path_1433" data-name="Path 1433" d="M29.219,102.323H26.527V99.759a.439.439,0,0,1,.439-.439H28.78a.439.439,0,0,1,.439.439Z" transform="translate(-24.973 -30.643)" fill="#c3d5ef"/>
    <path id="Path_1434" data-name="Path 1434" d="M48.4,99.32H47.365a.439.439,0,0,1,.439.439v2.564h1.032V99.759A.439.439,0,0,0,48.4,99.32Z" transform="translate(-44.59 -30.643)" fill="#b7c8ea"/>
    <path id="Path_1435" data-name="Path 1435" d="M442.214,102.323h-2.692V99.759a.439.439,0,0,1,.439-.439h1.814a.439.439,0,0,1,.439.439Z" transform="translate(-413.769 -30.643)" fill="#c3d5ef"/>
    <path id="Path_1436" data-name="Path 1436" d="M462.418,99.32h-.968a.439.439,0,0,1,.439.439v2.564h.968V99.759A.439.439,0,0,0,462.418,99.32Z" transform="translate(-434.412 -30.643)" fill="#b7c8ea"/>
    <g id="Group_4511" data-name="Group 4511" transform="translate(8.057 68.677)">
      <path id="Path_1437" data-name="Path 1437" d="M140.229,100.7h-2.718V99.659a.339.339,0,0,1,.339-.339h2.04a.339.339,0,0,1,.339.339V100.7Z" transform="translate(-137.511 -99.32)" fill="#df6b57"/>
      <path id="Path_1438" data-name="Path 1438" d="M235.521,100.7H232.8V99.659a.339.339,0,0,1,.339-.339h2.04a.339.339,0,0,1,.339.339V100.7Z" transform="translate(-227.219 -99.32)" fill="#df6b57"/>
      <path id="Path_1439" data-name="Path 1439" d="M330.814,100.7H328.1V99.659a.339.339,0,0,1,.339-.339h2.04a.339.339,0,0,1,.339.339V100.7Z" transform="translate(-316.929 -99.32)" fill="#df6b57"/>
    </g>
    <g id="Group_4512" data-name="Group 4512" transform="translate(2.448 69.715)">
      <path id="Path_1440" data-name="Path 1440" d="M42.23,118.02a.453.453,0,0,1-.453-.453v-.085a.453.453,0,1,1,.905,0v.085A.453.453,0,0,1,42.23,118.02Z" transform="translate(-41.777 -117.03)" fill="#2b4d66"/>
    </g>
    <g id="Group_4513" data-name="Group 4513" transform="translate(26.647 69.715)">
      <path id="Path_1441" data-name="Path 1441" d="M455.225,118.02a.453.453,0,0,1-.453-.453v-.085a.453.453,0,0,1,.905,0v.085A.453.453,0,0,1,455.225,118.02Z" transform="translate(-454.772 -117.03)" fill="#2b4d66"/>
    </g>
    <g id="Group_4514" data-name="Group 4514" transform="translate(13.662 81.139)">
      <path id="Path_1442" data-name="Path 1442" d="M233.966,316.3a.453.453,0,0,1-.37-.713l.927-1.319h-.9a.453.453,0,0,1-.365-.721l1-1.355a.453.453,0,1,1,.73.536l-.466.634h.875a.453.453,0,0,1,.37.713l-1.429,2.032A.452.452,0,0,1,233.966,316.3Z" transform="translate(-233.173 -312.009)" fill="#eab14d"/>
    </g>
    <g id="Group_4515" data-name="Group 4515" transform="translate(7.947 80.695)">
      <path id="Path_1443" data-name="Path 1443" d="M137.1,305.335h-1.017a.453.453,0,1,1,0-.905H137.1a.453.453,0,1,1,0,.905Z" transform="translate(-135.632 -304.43)" fill="#2b4d66"/>
    </g>
    <g id="Group_4516" data-name="Group 4516" transform="translate(20.084 84.832)">
      <path id="Path_1444" data-name="Path 1444" d="M344.244,375.935h-1.017a.453.453,0,1,1,0-.905h1.017a.453.453,0,1,1,0,.905Z" transform="translate(-342.775 -375.03)" fill="#2b4d66"/>
    </g>
    <g id="Group_4517" data-name="Group 4517" transform="translate(7.947 82.268)">
      <path id="Path_1445" data-name="Path 1445" d="M138.309,332.182h-2.224a.453.453,0,0,1,0-.905h2.224a.453.453,0,0,1,0,.905Z" transform="translate(-135.632 -331.277)" fill="#2b4d66"/>
    </g>
  </g>
</svg>
