<svg xmlns="http://www.w3.org/2000/svg" width="20" height="18.574" viewBox="0 0 20 18.574">
  <g id="transaction_history_icon" transform="translate(-1.041 -10.09)">
    <path id="Path_1324" data-name="Path 1324" d="M14.054,12.588A9.089,9.089,0,0,0,5,20.91H3.981a.439.439,0,0,0-.38.658L5.466,24.8a.439.439,0,0,0,.76,0l1.864-3.229a.439.439,0,0,0-.38-.658H6.764A7.335,7.335,0,1,1,9.2,27.175a.877.877,0,1,0-1.163,1.314,9.064,9.064,0,0,0,6.019,2.279h.006a9.09,9.09,0,1,0-.008-18.18Z" transform="translate(-2.305 -2.301)" fill="#fc5d3d"/>
    <path id="Path_1325" data-name="Path 1325" d="M86.095,93.237a.885.885,0,0,0,.885.885h1.941v1.914a.428.428,0,0,1-.428.428H80.658a.428.428,0,0,1-.428-.428V89.78a.663.663,0,0,0,.682.662h7.581a.428.428,0,0,1,.428.429v1.481H86.98A.885.885,0,0,0,86.095,93.237Z" transform="translate(-72.952 -73.413)" fill="#72c1e8"/>
    <path id="Path_1326" data-name="Path 1326" d="M89.027,81.78v1.326a.428.428,0,0,0-.428-.428H81.017A.663.663,0,1,1,81,81.352h7.6A.428.428,0,0,1,89.027,81.78Z" transform="translate(-73.058 -65.649)" fill="#afafaf"/>
    <path id="Path_1327" data-name="Path 1327" d="M157.592,122.43h-2.016a.885.885,0,1,0,0,1.771h2.016a.214.214,0,0,0,.214-.214v-1.342A.214.214,0,0,0,157.592,122.43Z" transform="translate(-141.547 -103.492)" fill="#afafaf"/>
    <path id="Path_1328" data-name="Path 1328" d="M38.9,37.918a8.41,8.41,0,0,1-4.42-1.249.2.2,0,1,1,.207-.335A8.029,8.029,0,0,0,46.928,29.5v-.011A8.027,8.027,0,0,0,30.9,28.817a.2.2,0,1,1-.392-.033,8.421,8.421,0,0,1,16.812.707V29.5A8.415,8.415,0,0,1,38.9,37.918Zm-4.968-2.112-.334-.3a.2.2,0,0,0-.284.006h0a.2.2,0,0,0,.012.3l.362.3a.2.2,0,1,0,.244-.31Z" transform="translate(-27.147 -10.12)" fill="#ffcbc2"/>
    <path id="Path_1329" data-name="Path 1329" d="M96.51,114.293h-.315a.2.2,0,1,1,0-.394h.315a.2.2,0,1,1,0,.394Zm-1.1,0H89.7a.2.2,0,0,1-.2-.2v-3.9a.2.2,0,0,1,.394,0v3.7h5.513a.2.2,0,1,1,0,.394Z" transform="translate(-81.492 -92.041)" fill="#c5e5ff"/>
    <path id="Path_1330" data-name="Path 1330" d="M54.63,66.047a1.072,1.072,0,0,0,.091,1.516,9.262,9.262,0,0,0,6.15,2.329h.005a9.262,9.262,0,0,0,6.881-3.054.2.2,0,0,0-.013-.279.2.2,0,0,0-.278.014A8.911,8.911,0,0,1,60.877,69.5h-.005a8.867,8.867,0,0,1-5.888-2.23.68.68,0,1,1,.9-1.019,7.533,7.533,0,1,0,9.894-11.361.2.2,0,0,0-.277.021.2.2,0,0,0,.021.278,7.139,7.139,0,1,1-9.377,10.767A1.076,1.076,0,0,0,54.63,66.047Z" transform="translate(-49.119 -41.229)"/>
    <path id="Path_1331" data-name="Path 1331" d="M187.667,49.05a.2.2,0,0,0-.051-.274.2.2,0,0,0-.273.05.2.2,0,1,0,.324.224Z" transform="translate(-171.596 -35.609)"/>
    <path id="Path_1332" data-name="Path 1332" d="M11.749,10.09a9.287,9.287,0,0,0-9.233,8.322h-.84a.636.636,0,0,0-.551.954l1.865,3.228a.635.635,0,0,0,1.1,0l1.865-3.23a.636.636,0,0,0-.55-.953H4.68a7.142,7.142,0,0,1,10.463-5.32.2.2,0,0,0,.267-.08.2.2,0,0,0-.08-.266A7.536,7.536,0,0,0,4.263,18.588a.2.2,0,0,0,.2.217h.947a.242.242,0,0,1,.209.362L3.75,22.4a.241.241,0,0,1-.418,0L1.467,19.168a.238.238,0,0,1-.033-.12.244.244,0,0,1,.243-.243H2.7a.2.2,0,0,0,.2-.18,8.894,8.894,0,1,1,16.386,5.5.2.2,0,1,0,.333.21,9.25,9.25,0,0,0,1.43-4.95h0a9.282,9.282,0,0,0-9.292-9.29Z" transform="translate(0 0)"/>
    <path id="Path_1333" data-name="Path 1333" d="M226.543,195.367a.2.2,0,1,0,.277-.038A.2.2,0,0,0,226.543,195.367Z" transform="translate(-207.704 -170.614)"/>
    <path id="Path_1334" data-name="Path 1334" d="M78.589,78.848a.858.858,0,0,0-.859.855c0,.03,0,2.363,0,2.393a.2.2,0,0,0,.394,0V80.431a.953.953,0,0,0,.482.137H86.19a.233.233,0,0,1,.23.232v1.284H84.676a1.082,1.082,0,0,0,0,2.164H86.42v1.718a.232.232,0,0,1-.231.231H78.354a.232.232,0,0,1-.231-.231v-2.3a.2.2,0,0,0-.394,0v2.3a.626.626,0,0,0,.625.625H86.19a.625.625,0,0,0,.625-.625V84.227a.411.411,0,0,0,.289-.39V82.495a.411.411,0,0,0-.289-.391V79.474a.626.626,0,0,0-.625-.626Zm8.1,3.63a.017.017,0,0,1,.017.017v1.342a.017.017,0,0,1-.017.017H84.676a.688.688,0,0,1,0-1.376Zm-.272-3v.745a.637.637,0,0,0-.231-.044H78.608a.466.466,0,1,1-.02-.933h7.6A.232.232,0,0,1,86.42,79.474Z" transform="translate(-70.648 -63.343)"/>
    <path id="Path_1335" data-name="Path 1335" d="M77.927,127.984a.2.2,0,1,0-.2-.2A.2.2,0,0,0,77.927,127.984Z" transform="translate(-70.649 -108.245)"/>
    <path id="Path_1336" data-name="Path 1336" d="M164.329,130.777a.2.2,0,0,0,.2.2h.21a.2.2,0,1,0,0-.394h-.21A.2.2,0,0,0,164.329,130.777Z" transform="translate(-150.427 -111)"/>
  </g>
</svg>
