<svg xmlns="http://www.w3.org/2000/svg" width="13.496" height="10" viewBox="0 0 13.496 10">
  <g id="tick" transform="translate(0 -66.32)">
    <path id="Path_948" data-name="Path 948" d="M13.256,66.562a.822.822,0,0,0-1.164,0L4.32,74.333,1.4,71.418A.823.823,0,1,0,.241,72.582l3.5,3.5a.823.823,0,0,0,1.164,0l8.354-8.354A.824.824,0,0,0,13.256,66.562Z" fill="#ffc107"/>
    <path id="Path_949" data-name="Path 949" d="M250.348,66.562a.822.822,0,0,0-1.164,0l-5.673,5.673v2.328l6.837-6.837A.824.824,0,0,0,250.348,66.562Z" transform="translate(-237.092)" fill="#ffc107"/>
  </g>
</svg>
