<svg xmlns="http://www.w3.org/2000/svg" width="14" height="14" viewBox="0 0 14 14">
  <g id="gallery-icon" transform="translate(12187 -5938)">
    <g id="Group_4599" data-name="Group 4599">
      <path id="ic_center_focus_weak_24px" d="M4.556,12.333H3v3.111A1.56,1.56,0,0,0,4.556,17H7.667V15.444H4.556Zm0-7.778H7.667V3H4.556A1.56,1.56,0,0,0,3,4.556V7.667H4.556ZM15.444,3H12.333V4.556h3.111V7.667H17V4.556A1.56,1.56,0,0,0,15.444,3Zm0,12.444H12.333V17h3.111A1.56,1.56,0,0,0,17,15.444V12.333H15.444ZM10,6.889A3.111,3.111,0,1,0,13.111,10,3.11,3.11,0,0,0,10,6.889Zm0,4.667A1.556,1.556,0,1,1,11.556,10,1.56,1.56,0,0,1,10,11.556Z" transform="translate(-12190 5935)"/>
    </g>
  </g>
</svg>
