<svg xmlns="http://www.w3.org/2000/svg" width="18.726" height="18" viewBox="0 0 18.726 18">
  <g id="dealer_icon" transform="translate(0 -0.911)">
    <g id="Layer_1_110_" transform="translate(0 0.911)">
      <g id="Group_3873" data-name="Group 3873">
        <path id="Path_1074" data-name="Path 1074" d="M11.068,10.542,9.929,9.465a1.669,1.669,0,0,0,.215-.808,1.7,1.7,0,1,0-.8,1.429l1.138,1.075A3.869,3.869,0,0,1,11.068,10.542Z" transform="translate(-4.069 -4.555)" fill="#002341"/>
        <path id="Path_1075" data-name="Path 1075" d="M28.559,6.763l1.514-2.547a1.671,1.671,0,1,0-.734-.429l-1.509,2.54A3.78,3.78,0,0,1,28.559,6.763Z" transform="translate(-16.741 -0.911)" fill="#002341"/>
        <path id="Path_1076" data-name="Path 1076" d="M37.075,20.952a1.688,1.688,0,0,0-1.581,1.106l-2.1-.208c0,.016,0,.031,0,.047a3.872,3.872,0,0,1-.085.8l2.1.208a1.687,1.687,0,1,0,1.664-1.953Z" transform="translate(-20.038 -12.967)" fill="#002341"/>
        <path id="Path_1077" data-name="Path 1077" d="M25.568,34.522l-.47-2.054a3.85,3.85,0,0,1-.83.192l.471,2.055a1.684,1.684,0,1,0,.829-.192Z" transform="translate(-14.334 -19.895)" fill="#002341"/>
        <path id="Path_1078" data-name="Path 1078" d="M5.72,25.37,3.1,26.247a1.686,1.686,0,1,0,.277.922c0-.039-.008-.075-.012-.113l2.626-.879A3.858,3.858,0,0,1,5.72,25.37Z" transform="translate(0 -15.625)" fill="#002341"/>
        <circle id="Ellipse_30" data-name="Ellipse 30" cx="2.897" cy="2.897" r="2.897" transform="translate(6.598 6.033)" fill="#002341"/>
      </g>
    </g>
  </g>
</svg>
