<svg xmlns="http://www.w3.org/2000/svg" width="19.989" height="20" viewBox="0 0 19.989 20">
  <g id="p_video_icon" transform="translate(-0.14)">
    <path id="Path_1513" data-name="Path 1513" d="M20.129,95.535s-3.709,12.135-3.709,14.679H3.849C3.849,107.671.14,95.535.14,95.535s1.674-1.655,9.995-1.655h.012C18.457,93.882,20.129,95.535,20.129,95.535Z" transform="translate(0 -90.215)" fill="#fdbf00"/>
    <path id="Path_1514" data-name="Path 1514" d="M266.442,95.535s-3.709,12.135-3.709,14.679H256.46V93.88C264.77,93.882,266.442,95.535,266.442,95.535Z" transform="translate(-246.313 -90.215)" fill="#ff9100"/>
    <path id="Path_1515" data-name="Path 1515" d="M194.312,237.869a1.172,1.172,0,0,1-1.172-1.172v-4.645a1.171,1.171,0,0,1,1.838-.963l3.378,2.337a1.171,1.171,0,0,1-.006,1.93l-3.378,2.308A1.169,1.169,0,0,1,194.312,237.869Z" transform="translate(-185.465 -221.867)" fill="#f5f0eb"/>
    <path id="Path_1516" data-name="Path 1516" d="M258.9,249.15l-2.756-1.906v5.716l2.75-1.879a1.171,1.171,0,0,0,.006-1.93Z" transform="translate(-246.005 -237.591)" fill="#dad0cb"/>
    <path id="Path_1517" data-name="Path 1517" d="M3.263,121.28H.726a.586.586,0,0,0-.586.586v12.923A1.758,1.758,0,0,0,1.9,136.545H3.263a.586.586,0,0,0,.586-.586V121.866A.586.586,0,0,0,3.263,121.28Z" transform="translate(0 -116.545)" fill="#6c6c6c"/>
    <g id="Group_4543" data-name="Group 4543" transform="translate(0.14 4.735)">
      <path id="Path_1518" data-name="Path 1518" d="M3.263,121.28H.726a.586.586,0,0,0-.586.586v2.811H3.849v-2.811A.586.586,0,0,0,3.263,121.28Z" transform="translate(-0.14 -121.28)" fill="#404040"/>
      <path id="Path_1519" data-name="Path 1519" d="M.14,280.28H3.849v2.811H.14Z" transform="translate(-0.14 -274.072)" fill="#404040"/>
      <path id="Path_1520" data-name="Path 1520" d="M.14,424.28v1.679A1.757,1.757,0,0,0,1.9,427.716H3.849V424.28Z" transform="translate(-0.14 -412.451)" fill="#404040"/>
      <path id="Path_1521" data-name="Path 1521" d="M417.14,121.866V135.96a.586.586,0,0,0,.586.586h1.366a1.758,1.758,0,0,0,1.757-1.757V121.866a.586.586,0,0,0-.586-.586h-2.538A.586.586,0,0,0,417.14,121.866Z" transform="translate(-400.86 -121.28)" fill="#404040"/>
    </g>
    <path id="Path_1522" data-name="Path 1522" d="M417.726,121.28h2.538a.586.586,0,0,1,.586.586v2.811H417.14v-2.811A.586.586,0,0,1,417.726,121.28Z" transform="translate(-400.72 -116.545)" fill="#262626"/>
    <path id="Path_1523" data-name="Path 1523" d="M417.14,280.28h3.709v2.811H417.14Z" transform="translate(-400.72 -269.338)" fill="#262626"/>
    <path id="Path_1524" data-name="Path 1524" d="M420.849,424.28v1.679a1.757,1.757,0,0,1-1.757,1.757H417.14V424.28Z" transform="translate(-400.72 -407.716)" fill="#262626"/>
    <path id="Path_1525" data-name="Path 1525" d="M20.129,5.321V3.993a1.759,1.759,0,0,0-1.757-1.757H7.3A.587.587,0,0,1,6.825,2L5.936.733,5.931.726A1.764,1.764,0,0,0,4.507,0h0L1.892.007A1.76,1.76,0,0,0,.14,1.764V5.321Z" transform="translate(0)" fill="#ffda2d"/>
    <path id="Path_1526" data-name="Path 1526" d="M264.378,57.28H256.14v3.084h9.995V59.037A1.759,1.759,0,0,0,264.378,57.28Z" transform="translate(-246.005 -55.044)" fill="#fdbf00"/>
  </g>
</svg>
