<svg xmlns="http://www.w3.org/2000/svg" width="20" height="20" viewBox="0 0 20 20">
  <g id="testimonial_icon" transform="translate(0 -0.005)">
    <path id="Path_1537" data-name="Path 1537" d="M22.667,87.864H16.552A6.552,6.552,0,0,0,10,94.416h0a6.552,6.552,0,0,0,6.552,6.552h4.393l3.073,3.073v-3.213a6.554,6.554,0,0,0,5.2-6.412h0A6.552,6.552,0,0,0,22.667,87.864Z" transform="translate(-9.609 -84.427)" fill="#72d8ff"/>
    <g id="Group_4544" data-name="Group 4544" transform="translate(2.5 0.395)">
      <path id="Path_1538" data-name="Path 1538" d="M66.338,10v1.169q-1.125.1-1.125,1.629h1.125a.225.225,0,0,1,.225.225v1.888a.225.225,0,0,1-.225.225H64.225A.225.225,0,0,1,64,14.915V12.883Q64,10.136,66.338,10Z" transform="translate(-64 -10.004)" fill="#62cd4d"/>
      <path id="Path_1539" data-name="Path 1539" d="M168.573,10v1.169q-1.125.1-1.125,1.629h1.125a.225.225,0,0,1,.225.225v1.888a.225.225,0,0,1-.225.225H166.46a.225.225,0,0,1-.225-.225V12.883Q166.235,10.136,168.573,10Z" transform="translate(-162.241 -10.004)" fill="#62cd4d"/>
    </g>
    <path id="Path_1540" data-name="Path 1540" d="M56.729,5.922H54.615A.616.616,0,0,1,54,5.307V3.274C54,.7,55.472.075,56.707.005a.391.391,0,0,1,.413.39V1.564a.391.391,0,0,1-.355.389c-.2.018-.639.058-.746.85h.711a.616.616,0,0,1,.615.615V5.307A.616.616,0,0,1,56.729,5.922Zm-1.948-.781h1.782V3.584H55.6a.391.391,0,0,1-.391-.391c0-1.32.6-1.791,1.125-1.95V.833c-.757.142-1.557.644-1.557,2.441Z" transform="translate(-51.891)"/>
    <path id="Path_1541" data-name="Path 1541" d="M158.963,5.922h-2.113a.616.616,0,0,1-.615-.615V3.274c0-2.576,1.472-3.2,2.707-3.269a.391.391,0,0,1,.413.39V1.564a.391.391,0,0,1-.355.389c-.2.018-.639.058-.746.85h.711a.616.616,0,0,1,.615.615V5.307A.616.616,0,0,1,158.963,5.922Zm-1.948-.781H158.8V3.584h-.96a.391.391,0,0,1-.391-.391c0-1.32.6-1.791,1.125-1.95V.833c-.757.142-1.557.644-1.557,2.441Z" transform="translate(-150.131 0)"/>
    <path id="Path_1542" data-name="Path 1542" d="M268.391,78.646a.391.391,0,1,1,.276-.114A.394.394,0,0,1,268.391,78.646Z" transform="translate(-257.531 -74.819)"/>
    <path id="Path_1543" data-name="Path 1543" d="M14.409,94.823a.39.39,0,0,1-.276-.114L11.174,91.75H6.943A6.944,6.944,0,0,1,.872,81.437a.391.391,0,1,1,.683.38,6.163,6.163,0,0,0,5.389,9.152h4.393a.391.391,0,0,1,.276.114l2.406,2.406v-2.27a.391.391,0,0,1,.31-.382,6.162,6.162,0,0,0-1.271-12.192h-.492a.391.391,0,0,1,0-.781h.492A6.944,6.944,0,0,1,14.8,91.529v2.9a.391.391,0,0,1-.391.391Z" transform="translate(0 -74.818)"/>
    <path id="Path_1544" data-name="Path 1544" d="M132.942,178.273h-9.614a.391.391,0,1,1,0-.781h9.615a.391.391,0,1,1,0,.781Z" transform="translate(-118.135 -170.554)"/>
    <path id="Path_1545" data-name="Path 1545" d="M132.942,231.606h-9.614a.391.391,0,1,1,0-.781h9.615a.391.391,0,1,1,0,.781Z" transform="translate(-118.135 -221.804)"/>
    <path id="Path_1546" data-name="Path 1546" d="M132.942,284.939h-9.614a.391.391,0,1,1,0-.781h9.615a.391.391,0,1,1,0,.781Z" transform="translate(-118.135 -273.053)"/>
    <path id="Path_1547" data-name="Path 1547" d="M243.386,338.273h-5.125a.391.391,0,1,1,0-.781h5.125a.391.391,0,0,1,0,.781Z" transform="translate(-228.579 -324.304)"/>
    <path id="Path_1548" data-name="Path 1548" d="M181.843,338.272h-.006a.391.391,0,0,1,0-.781h.006a.391.391,0,1,1,0,.781Z" transform="translate(-174.358 -324.303)"/>
  </g>
</svg>
