<svg xmlns="http://www.w3.org/2000/svg" width="24.967" height="14" viewBox="0 0 24.967 14">
  <g id="logistics-delivery_icon" transform="translate(0 -134.412)">
    <g id="Group_2162" data-name="Group 2162" transform="translate(0 134.412)">
      <path id="Path_543" data-name="Path 543" d="M9.251,144.241a2.085,2.085,0,1,0,2.084,2.087A2.085,2.085,0,0,0,9.251,144.241Zm0,3.129a1.042,1.042,0,1,1,1.042-1.042A1.043,1.043,0,0,1,9.251,147.37ZM24.967,142.7v2.225a1,1,0,0,1-1.005,1.005H22.886a2.758,2.758,0,0,0-5.457,0H11.979a2.756,2.756,0,0,0-5.454,0H5.178a1,1,0,0,1-1-1.005V142.7Zm-4.808,1.542a2.085,2.085,0,1,0,2.084,2.087A2.087,2.087,0,0,0,20.159,144.241Zm0,3.129a1.042,1.042,0,1,1,1.042-1.042A1.043,1.043,0,0,1,20.159,147.37Zm4.412-6.911-3.95-3.906a1.343,1.343,0,0,0-.941-.389H17.686v-.747a1,1,0,0,0-1-1H5.177a1.006,1.006,0,0,0-1,1v.157l-4.078.47,7.227.941L0,137.713l7.295,1.037L0,139.382l4.172.787v1.975H24.966v-.734A1.346,1.346,0,0,0,24.571,140.459Zm-1.722.131H19.026a.157.157,0,0,1-.157-.157v-2.951a.157.157,0,0,1,.157-.157h.727a.17.17,0,0,1,.111.044l3.092,2.951A.157.157,0,0,1,22.849,140.59Z" transform="translate(0 -134.412)" fill="#00b5c9"/>
    </g>
  </g>
</svg>
