<svg id="news_event_icon" xmlns="http://www.w3.org/2000/svg" width="20" height="20" viewBox="0 0 20 20">
  <path id="Path_1527" data-name="Path 1527" d="M110.688,30,106,39.414l4.688,9.414h10V30Z" transform="translate(-101.859 -28.828)" fill="#d2d2d2"/>
  <path id="Path_1528" data-name="Path 1528" d="M2.344,31.172H0v15.9a1.76,1.76,0,0,0,1.758,1.758h7.07V30Z" transform="translate(0 -28.828)" fill="#e4e4e4"/>
  <path id="Path_1529" data-name="Path 1529" d="M60,302h5.9v1.172H60Z" transform="translate(-57.656 -290.203)" fill="#434343"/>
  <path id="Path_1530" data-name="Path 1530" d="M60,362h5.9v1.172H60Z" transform="translate(-57.656 -347.859)" fill="#434343"/>
  <path id="Path_1531" data-name="Path 1531" d="M241,302h5.9v5.859H241Z" transform="translate(-231.586 -290.203)" fill="#0f9af0"/>
  <path id="Path_1532" data-name="Path 1532" d="M60,422h5.9v1.172H60Z" transform="translate(-57.656 -405.516)" fill="#434343"/>
  <path id="Path_1533" data-name="Path 1533" d="M187.563,0,186,1.172l1.563,1.172h8.828V18.828a1.172,1.172,0,0,0,2.344,0V0Z" transform="translate(-178.734)" fill="#a1a1a1"/>
  <path id="Path_1534" data-name="Path 1534" d="M60,0h6.484V2.344H60Z" transform="translate(-57.656)" fill="silver"/>
  <path id="Path_1535" data-name="Path 1535" d="M174.828,120h-6.484L166,122.969l2.344,2.969h6.484Z" transform="translate(-159.516 -115.313)" fill="#ff3cad"/>
  <path id="Path_1536" data-name="Path 1536" d="M60,120h6.484v5.938H60Z" transform="translate(-57.656 -115.313)" fill="#fe6192"/>
</svg>
