<svg xmlns="http://www.w3.org/2000/svg" width="23" height="20.764" viewBox="0 0 23 20.764">
  <g id="upload_camera-icon" transform="translate(-45 -136.001)">
    <path id="upload_camera-icon-2" data-name="upload_camera-icon" d="M90.38,100.769H74.618A3.623,3.623,0,0,1,71,97.149v-10.3a3.623,3.623,0,0,1,3.619-3.619h1.34a.861.861,0,0,0,.808-.567l.31-.858A2.731,2.731,0,0,1,79.639,80H85.36a2.722,2.722,0,0,1,2.578,1.846l.271.8a.858.858,0,0,0,.813.582h1.36A3.623,3.623,0,0,1,94,86.851v5.821a.932.932,0,1,1-1.865,0V86.851A1.756,1.756,0,0,0,90.38,85.1H89.02a2.722,2.722,0,0,1-2.578-1.846l-.271-.8a.859.859,0,0,0-.813-.582H79.637a.861.861,0,0,0-.808.567l-.31.858a2.731,2.731,0,0,1-2.562,1.8H74.618a1.756,1.756,0,0,0-1.754,1.754v10.3A1.756,1.756,0,0,0,74.618,98.9H90.38a1.756,1.756,0,0,0,1.754-1.754.932.932,0,0,1,1.865,0,3.623,3.623,0,0,1-3.619,3.623Zm0,0" transform="translate(-26 55.996)" fill="#10426c"/>
    <path id="Path_952" data-name="Path 952" d="M171.72,186.362a5.634,5.634,0,1,1,5.634-5.634,5.634,5.634,0,0,1-5.634,5.634Zm0-9.4a3.769,3.769,0,1,0,3.769,3.769,3.769,3.769,0,0,0-3.769-3.769Zm0,0" transform="translate(-115.176 -33.18)" fill="#10426c"/>
  </g>
</svg>
