<svg xmlns="http://www.w3.org/2000/svg" width="18.751" height="18" viewBox="0 0 18.751 18">
  <g id="wallet_icon" transform="translate(0 -17.84)">
    <g id="Group_31" data-name="Group 31" transform="translate(0 17.84)">
      <path id="Path_415" data-name="Path 415" d="M160.523,21.267,168,19.226l-.4-.8a1.053,1.053,0,0,0-1.411-.476L159.5,21.267Z" transform="translate(-156.141 -17.84)" fill="#002341"/>
      <path id="Path_416" data-name="Path 416" d="M329.4,86.46a1.052,1.052,0,0,0-.278.038l-1.756.48L322,88.441h8.741l-.328-1.2A1.051,1.051,0,0,0,329.4,86.46Z" transform="translate(-315.22 -85.015)" fill="#002341"/>
      <path id="Path_417" data-name="Path 417" d="M16.618,215.56H1.055a1.054,1.054,0,0,0-1.017.777,1.09,1.09,0,0,0-.038.276v11.731A1.053,1.053,0,0,0,1.053,229.4H16.616a1.053,1.053,0,0,0,1.053-1.053v-2.937H11.421a1.791,1.791,0,0,1-1.79-1.79v-2.342a1.787,1.787,0,0,1,1.788-1.788h6.25v-2.874A1.05,1.05,0,0,0,16.618,215.56Z" transform="translate(0 -211.397)" fill="#002341"/>
      <path id="Path_418" data-name="Path 418" d="M500.44,437.037a1.051,1.051,0,0,0-.369-.219,1.073,1.073,0,0,0-.341-.057h-6.277a1.053,1.053,0,0,0-1.053,1.053v2.344a1.053,1.053,0,0,0,1.053,1.053h6.277a1.072,1.072,0,0,0,.341-.057,1.021,1.021,0,0,0,.369-.219,1.049,1.049,0,0,0,.343-.777v-2.344A1.049,1.049,0,0,0,500.44,437.037Zm-4.788,2.158a.527.527,0,0,1-.526.526h-.35a.527.527,0,0,1-.526-.526v-.35a.516.516,0,0,1,.2-.413.532.532,0,0,1,.324-.114h.35a.527.527,0,0,1,.526.526v.35Z" transform="translate(-482.031 -427.94)" fill="#002341"/>
    </g>
  </g>
</svg>
