<?xml version="1.0"?>
<svg xmlns="http://www.w3.org/2000/svg" xmlns:xlink="http://www.w3.org/1999/xlink" version="1.1" id="Capa_1" x="0px" y="0px" viewBox="0 0 512 512" style="enable-background:new 0 0 512 512;" xml:space="preserve" width="512px" height="512px" class=""><g><g>
	<g>
		<g>
			<path d="M398.741,317.141c-3.968-1.664-8.576-0.725-11.627,2.304l-76.501,76.501c-4.096,4.096-9.237,7.019-14.848,8.427     l-85.312,21.333c-11.008,2.709-22.549-0.533-30.421-8.427c-7.893-7.893-11.115-19.541-8.427-30.379l21.355-85.312     c1.387-5.632,4.309-10.752,8.427-14.869L402.219,86.016c2.005-2.005,3.115-4.715,3.115-7.552V32c0-17.643-14.357-32-32-32     h-10.667v74.667c0,17.643-14.357,32-32,32c-17.643,0-32-14.357-32-32c0-13.888,8.939-25.621,21.333-30.037v30.037     c0,5.888,4.779,10.667,10.667,10.667s10.667-4.779,10.667-10.667V0h-64v74.667c0,17.643-14.357,32-32,32     c-17.643,0-32-14.357-32-32c0-13.888,8.939-25.621,21.333-30.037v30.037c0,5.888,4.779,10.667,10.667,10.667     S256,80.555,256,74.667V0h-64v74.667c0,17.643-14.357,32-32,32s-32-14.357-32-32c0-13.888,8.939-25.621,21.333-30.037v30.037     c0,5.888,4.779,10.667,10.667,10.667s10.667-4.779,10.667-10.667V0h-64v74.667c0,17.643-14.357,32-32,32     c-17.643,0-32-14.357-32-32c0-13.888,8.939-25.621,21.333-30.037v30.037c0,5.888,4.779,10.667,10.667,10.667     s10.667-4.779,10.667-10.667V0H32C14.357,0,0,14.357,0,32v448c0,17.643,14.357,32,32,32h341.333c17.643,0,32-14.357,32-32     V326.997C405.333,322.688,402.731,318.784,398.741,317.141z M74.667,213.355h138.667c5.888,0,10.667,4.779,10.667,10.667     s-4.779,10.667-10.667,10.667H74.667c-5.888,0-10.667-4.779-10.667-10.667S68.779,213.355,74.667,213.355z M138.667,405.355h-64     c-5.888,0-10.667-4.779-10.667-10.667c0-5.888,4.779-10.667,10.667-10.667h64c5.888,0,10.667,4.779,10.667,10.667     C149.333,400.576,144.555,405.355,138.667,405.355z M149.333,320.021H74.667c-5.888,0-10.667-4.779-10.667-10.667     s4.779-10.667,10.667-10.667h74.667c5.888,0,10.667,4.779,10.667,10.667S155.221,320.021,149.333,320.021z" data-original="#000000" class="active-path" data-old_color="#000000" fill="#FFFFFF"/>
			<path d="M456.064,85.376c-14.933,0-28.949,5.803-39.531,16.384l-21.867,21.867l79.083,79.083l21.867-21.888     c10.56-10.56,16.384-24.597,16.384-39.552C512,110.443,486.912,85.376,456.064,85.376z" data-original="#000000" class="active-path" data-old_color="#000000" fill="#FFFFFF"/>
			<path d="M195.093,402.219c2.048,2.027,4.779,3.136,7.573,3.136c0.875,0,1.728-0.107,2.581-0.32l77.504-19.371     c-0.832-1.301-1.472-2.752-1.664-4.395c-0.128-0.96-3.691-25.493-29.717-47.168c-15.189-12.672-29.824-17.536-39.701-19.456     l-19.371,77.44C191.381,395.712,192.448,399.573,195.093,402.219z" data-original="#000000" class="active-path" data-old_color="#000000" fill="#FFFFFF"/>
			<path d="M222.805,295.467c12.011,3.264,27.029,9.579,42.219,22.251c26.901,22.421,34.517,47.872,36.523,57.173l157.12-157.12     l-79.083-79.083L222.805,295.467z" data-original="#000000" class="active-path" data-old_color="#000000" fill="#FFFFFF"/>
		</g>
	</g>
</g></g> </svg>
