<svg xmlns="http://www.w3.org/2000/svg" width="12.409" height="14" viewBox="0 0 12.409 14">
  <g id="hourglass_icon" transform="translate(-2.671)">
    <g id="Layer_1_64_" transform="translate(2.671)">
      <g id="Group_2121" data-name="Group 2121">
        <path id="Path_540" data-name="Path 540" d="M18.709,14.217a.318.318,0,0,0,.636,0,1.585,1.585,0,0,1,.373-1.019,6.537,6.537,0,0,0,1.188-2.041.318.318,0,0,0-.3-.424H17.449a.318.318,0,0,0-.3.424A6.548,6.548,0,0,0,18.336,13.2,1.585,1.585,0,0,1,18.709,14.217Z" transform="translate(-12.823 -7.537)" fill="#ff8431"/>
        <path id="Path_541" data-name="Path 541" d="M15.568,25.961a.318.318,0,0,0-.636,0,1.656,1.656,0,0,1-.772,1.282,8.357,8.357,0,0,0-2.368,2.538.318.318,0,0,0,.277.474h6.363a.318.318,0,0,0,.277-.474,8.356,8.356,0,0,0-2.368-2.538A1.655,1.655,0,0,1,15.568,25.961Z" transform="translate(-9.046 -18.005)" fill="#ff8431"/>
        <path id="Path_542" data-name="Path 542" d="M14.443,12.727h-.19A10.527,10.527,0,0,0,11.457,7a10.531,10.531,0,0,0,2.8-5.727h.19a.636.636,0,0,0,0-1.273H3.307a.636.636,0,0,0,0,1.273H3.5A10.524,10.524,0,0,0,6.293,7a10.529,10.529,0,0,0-2.8,5.727h-.19a.636.636,0,0,0,0,1.273H14.443a.636.636,0,1,0,0-1.273Zm-9.67,0c.239-2.237,1.694-3.96,2.781-5.247l.058-.069a.636.636,0,0,0,0-.821l-.058-.069C6.467,5.234,5.012,3.511,4.773,1.274h8.2c-.239,2.238-1.694,3.96-2.781,5.248l-.057.069a.636.636,0,0,0,0,.821l.058.069c1.087,1.287,2.541,3.01,2.78,5.247h-8.2Z" transform="translate(-2.671)" fill="#ff8431"/>
      </g>
    </g>
  </g>
</svg>
