<svg xmlns="http://www.w3.org/2000/svg" width="90.007" height="90" viewBox="0 0 90.007 90">
  <g id="surprise" transform="translate(0 -0.021)" opacity="0.4">
    <g id="Group_2053" data-name="Group 2053" transform="translate(86.492 0.029)">
      <g id="Group_2052" data-name="Group 2052" transform="translate(0 0)">
        <path id="Path_448" data-name="Path 448" d="M495,.58a1.758,1.758,0,0,0-3,1.243A1.758,1.758,0,1,0,495,.58Z" transform="translate(-492.002 -0.065)" fill="#354b9c"/>
      </g>
    </g>
    <g id="Group_2055" data-name="Group 2055" transform="translate(17.228 17.212)">
      <g id="Group_2054" data-name="Group 2054">
        <path id="Path_449" data-name="Path 449" d="M149.325,109.623h-6.516a7.649,7.649,0,1,0-13-8.057,6.462,6.462,0,0,0-8.07,0,7.649,7.649,0,1,0-13,8.057h-6.515A4.227,4.227,0,0,0,98,113.845v6.146a4.223,4.223,0,0,0,2.109,3.653v28.867a5.985,5.985,0,0,0,5.978,5.978h39.371a5.985,5.985,0,0,0,5.978-5.978V123.644a4.224,4.224,0,0,0,2.109-3.653v-6.146A4.227,4.227,0,0,0,149.325,109.623Zm-17.07-4.162a4.137,4.137,0,1,1,4.137,4.137h-4.137Zm1.805,7.677,5.338,9.407-1.257-.338a1.758,1.758,0,0,0-2.154,1.243l-.307,1.149-6.447-11.462h4.827Zm-8.286-9.472a2.966,2.966,0,1,1-2.966,2.966A2.969,2.969,0,0,1,125.774,103.667Zm-3.3,9.472h0l-5.381,9.4-.319-1.192a1.758,1.758,0,0,0-2.154-1.243l-1.245.334,4.165-7.3Zm-7.319-11.814a4.142,4.142,0,0,1,4.137,4.137V109.6h-4.137a4.137,4.137,0,1,1,0-8.274Zm-13.639,18.666v-6.145a.707.707,0,0,1,.707-.707h11.27l-4.311,7.558h-6.96A.707.707,0,0,1,101.517,119.991Zm27.421,34.983H106.089a2.465,2.465,0,0,1-2.463-2.463v-28.3h4.682c.021.031.038.063.061.092a1.758,1.758,0,0,0,1.847.624l3.616-.97.968,3.617a1.758,1.758,0,0,0,3.224.419l1.07-1.87V143.9a1.758,1.758,0,0,0,3.516,0V124.316h6.328v30.657Zm-6.8-34.173,3.716-6.495,3.653,6.495Zm25.781,31.71a2.466,2.466,0,0,1-2.463,2.463H132.454V126.035l2.278,4.05a1.758,1.758,0,0,0,1.532.9,1.724,1.724,0,0,0,.22-.014,1.758,1.758,0,0,0,1.478-1.29l.968-3.617,3.616.97a1.758,1.758,0,0,0,1.985-2.565l-.143-.252h3.535Zm2.109-32.52a.707.707,0,0,1-.707.707h-6.933l-4.289-7.558h11.222a.707.707,0,0,1,.707.706Z" transform="translate(-98.001 -97.809)" fill="#354b9c"/>
      </g>
    </g>
    <g id="Group_2057" data-name="Group 2057" transform="translate(38.322 67.961)">
      <g id="Group_2056" data-name="Group 2056">
        <path id="Path_450" data-name="Path 450" d="M220.991,387.008a1.759,1.759,0,1,0,.515,1.244A1.769,1.769,0,0,0,220.991,387.008Z" transform="translate(-217.991 -386.495)" fill="#354b9c"/>
      </g>
    </g>
    <g id="Group_2059" data-name="Group 2059" transform="translate(65.743 4.644)">
      <g id="Group_2058" data-name="Group 2058">
        <path id="Path_451" data-name="Path 451" d="M393.11,26.835a1.758,1.758,0,0,0-2.486,0L374.489,42.97a1.758,1.758,0,1,0,2.486,2.486L393.11,29.321A1.758,1.758,0,0,0,393.11,26.835Z" transform="translate(-373.974 -26.32)" fill="#354b9c"/>
      </g>
    </g>
    <g id="Group_2061" data-name="Group 2061" transform="translate(4.66 5.033)">
      <g id="Group_2060" data-name="Group 2060">
        <path id="Path_452" data-name="Path 452" d="M39.44,38.975l-9.932-9.931a1.758,1.758,0,0,0-2.486,2.486l9.932,9.931a1.758,1.758,0,0,0,2.486-2.486Z" transform="translate(-26.507 -28.529)" fill="#354b9c"/>
      </g>
    </g>
    <g id="Group_2063" data-name="Group 2063" transform="translate(0.178 72.89)">
      <g id="Group_2062" data-name="Group 2062">
        <path id="Path_453" data-name="Path 453" d="M17.628,415.047a1.758,1.758,0,0,0-2.486,0L1.527,428.662a1.758,1.758,0,1,0,2.486,2.486l13.615-13.615A1.758,1.758,0,0,0,17.628,415.047Z" transform="translate(-1.012 -414.532)" fill="#354b9c"/>
      </g>
    </g>
    <g id="Group_2065" data-name="Group 2065" transform="translate(73.312 73.333)">
      <g id="Group_2064" data-name="Group 2064">
        <path id="Path_454" data-name="Path 454" d="M428.806,426.339l-8.776-8.776a1.758,1.758,0,0,0-2.486,2.486l8.776,8.776a1.758,1.758,0,0,0,2.486-2.486Z" transform="translate(-417.029 -417.049)" fill="#354b9c"/>
      </g>
    </g>
    <g id="Group_2067" data-name="Group 2067" transform="translate(0 43.264)">
      <g id="Group_2066" data-name="Group 2066">
        <path id="Path_455" data-name="Path 455" d="M11.689,246.006H1.758a1.758,1.758,0,1,0,0,3.516h9.931a1.758,1.758,0,1,0,0-3.516Z" transform="translate(0 -246.006)" fill="#354b9c"/>
      </g>
    </g>
    <g id="Group_2069" data-name="Group 2069" transform="translate(76.456 43.264)">
      <g id="Group_2068" data-name="Group 2068">
        <path id="Path_456" data-name="Path 456" d="M446.7,246.006H436.671a1.758,1.758,0,1,0,0,3.516H446.7a1.758,1.758,0,0,0,0-3.516Z" transform="translate(-434.913 -246.006)" fill="#354b9c"/>
      </g>
    </g>
    <g id="Group_2071" data-name="Group 2071" transform="translate(43.244 0.021)">
      <g id="Group_2070" data-name="Group 2070" transform="translate(0 0)">
        <path id="Path_457" data-name="Path 457" d="M247.746.021a1.758,1.758,0,0,0-1.758,1.758V15.255a1.758,1.758,0,0,0,3.516,0V1.779A1.758,1.758,0,0,0,247.746.021Z" transform="translate(-245.988 -0.021)" fill="#354b9c"/>
      </g>
    </g>
    <g id="Group_2073" data-name="Group 2073" transform="translate(43.244 79.786)">
      <g id="Group_2072" data-name="Group 2072">
        <path id="Path_458" data-name="Path 458" d="M247.746,453.757a1.758,1.758,0,0,0-1.758,1.758v6.72a1.758,1.758,0,1,0,3.516,0v-6.72A1.758,1.758,0,0,0,247.746,453.757Z" transform="translate(-245.988 -453.757)" fill="#354b9c"/>
      </g>
    </g>
    <g id="Group_2075" data-name="Group 2075" transform="translate(85.279 62.227)">
      <g id="Group_2074" data-name="Group 2074">
        <path id="Path_459" data-name="Path 459" d="M488.067,353.875h-1.206a1.758,1.758,0,0,0,0,3.516h1.206a1.758,1.758,0,1,0,0-3.516Z" transform="translate(-485.104 -353.875)" fill="#354b9c"/>
      </g>
    </g>
    <g id="Group_2077" data-name="Group 2077" transform="translate(76.75 62.227)">
      <g id="Group_2076" data-name="Group 2076">
        <path id="Path_460" data-name="Path 460" d="M439.551,353.875h-1.206a1.758,1.758,0,0,0,0,3.516h1.206a1.758,1.758,0,0,0,0-3.516Z" transform="translate(-436.588 -353.875)" fill="#354b9c"/>
      </g>
    </g>
    <g id="Group_2079" data-name="Group 2079" transform="translate(81.617 65.888)">
      <g id="Group_2078" data-name="Group 2078">
        <path id="Path_461" data-name="Path 461" d="M466.033,374.7a1.758,1.758,0,0,0-1.758,1.758v1.206a1.758,1.758,0,0,0,3.516,0v-1.206A1.758,1.758,0,0,0,466.033,374.7Z" transform="translate(-464.275 -374.703)" fill="#354b9c"/>
      </g>
    </g>
    <g id="Group_2081" data-name="Group 2081" transform="translate(81.617 57.36)">
      <g id="Group_2080" data-name="Group 2080">
        <path id="Path_462" data-name="Path 462" d="M466.033,326.188a1.758,1.758,0,0,0-1.758,1.758v1.206a1.758,1.758,0,0,0,3.516,0v-1.206A1.758,1.758,0,0,0,466.033,326.188Z" transform="translate(-464.275 -326.188)" fill="#354b9c"/>
      </g>
    </g>
    <g id="Group_2083" data-name="Group 2083" transform="translate(8.717 27.974)">
      <g id="Group_2082" data-name="Group 2082">
        <path id="Path_463" data-name="Path 463" d="M52.551,159.03H51.346a1.758,1.758,0,0,0,0,3.516h1.206a1.758,1.758,0,0,0,0-3.516Z" transform="translate(-49.588 -159.03)" fill="#354b9c"/>
      </g>
    </g>
    <g id="Group_2085" data-name="Group 2085" transform="translate(0.189 27.974)">
      <g id="Group_2084" data-name="Group 2084">
        <path id="Path_464" data-name="Path 464" d="M4.036,159.03H2.831a1.758,1.758,0,0,0,0,3.516H4.036a1.758,1.758,0,0,0,0-3.516Z" transform="translate(-1.073 -159.03)" fill="#354b9c"/>
      </g>
    </g>
    <g id="Group_2087" data-name="Group 2087" transform="translate(5.056 31.636)">
      <g id="Group_2086" data-name="Group 2086">
        <path id="Path_465" data-name="Path 465" d="M30.518,179.859a1.758,1.758,0,0,0-1.758,1.758v1.205a1.758,1.758,0,1,0,3.516,0v-1.205A1.758,1.758,0,0,0,30.518,179.859Z" transform="translate(-28.76 -179.859)" fill="#354b9c"/>
      </g>
    </g>
    <g id="Group_2089" data-name="Group 2089" transform="translate(5.056 23.107)">
      <g id="Group_2088" data-name="Group 2088">
        <path id="Path_466" data-name="Path 466" d="M30.518,131.343A1.758,1.758,0,0,0,28.76,133.1v1.205a1.758,1.758,0,1,0,3.516,0V133.1A1.758,1.758,0,0,0,30.518,131.343Z" transform="translate(-28.76 -131.343)" fill="#354b9c"/>
      </g>
    </g>
    <g id="Group_2091" data-name="Group 2091" transform="translate(60.411 3.48)">
      <g id="Group_2090" data-name="Group 2090">
        <path id="Path_467" data-name="Path 467" d="M348.916,19.7a5.273,5.273,0,1,0,5.273,5.273A5.279,5.279,0,0,0,348.916,19.7Zm0,7.031a1.758,1.758,0,1,1,1.758-1.758A1.76,1.76,0,0,1,348.916,26.727Z" transform="translate(-343.643 -19.696)" fill="#354b9c"/>
      </g>
    </g>
    <g id="Group_2093" data-name="Group 2093" transform="translate(2.289 58.711)">
      <g id="Group_2092" data-name="Group 2092">
        <path id="Path_468" data-name="Path 468" d="M18.3,333.877a5.273,5.273,0,1,0,5.273,5.273A5.279,5.279,0,0,0,18.3,333.877Zm0,7.031a1.758,1.758,0,1,1,1.758-1.758A1.76,1.76,0,0,1,18.3,340.908Z" transform="translate(-13.022 -333.877)" fill="#354b9c"/>
      </g>
    </g>
    <g id="Group_2095" data-name="Group 2095" transform="translate(63.927 81.544)">
      <g id="Group_2094" data-name="Group 2094">
        <path id="Path_469" data-name="Path 469" d="M366.646,464.273a1.756,1.756,0,1,0,.515,1.243A1.77,1.77,0,0,0,366.646,464.273Z" transform="translate(-363.646 -463.758)" fill="#354b9c"/>
      </g>
    </g>
    <g id="Group_2097" data-name="Group 2097" transform="translate(26.017 81.544)">
      <g id="Group_2096" data-name="Group 2096">
        <path id="Path_470" data-name="Path 470" d="M151,464.273a1.756,1.756,0,1,0,.515,1.243A1.77,1.77,0,0,0,151,464.273Z" transform="translate(-147.998 -463.758)" fill="#354b9c"/>
      </g>
    </g>
    <g id="Group_2099" data-name="Group 2099" transform="translate(27.228 7.046)">
      <g id="Group_2098" data-name="Group 2098">
        <path id="Path_471" data-name="Path 471" d="M157.886,40.5a1.757,1.757,0,1,0,.515,1.243A1.772,1.772,0,0,0,157.886,40.5Z" transform="translate(-154.886 -39.981)" fill="#354b9c"/>
      </g>
    </g>
    <g id="Group_2101" data-name="Group 2101" transform="translate(81.479 26.917)">
      <g id="Group_2100" data-name="Group 2100">
        <path id="Path_472" data-name="Path 472" d="M466.486,153.534a1.757,1.757,0,1,0,.515,1.243A1.764,1.764,0,0,0,466.486,153.534Z" transform="translate(-463.485 -153.019)" fill="#354b9c"/>
      </g>
    </g>
  </g>
</svg>
