<svg xmlns="http://www.w3.org/2000/svg" width="20" height="17.333" viewBox="0 0 20 17.333">
  <g id="brms_icon" transform="translate(-16 -48)">
    <path id="Path_1382" data-name="Path 1382" d="M24,424H35v.667a.667.667,0,0,1-.667.667H24.667a.667.667,0,0,1-.667-.667Z" transform="translate(-7.667 -360.333)" fill="#e0edff"/>
    <path id="Path_1383" data-name="Path 1383" d="M63.667,280h-7a.667.667,0,0,0-.667.667V286h8.333v-5.333A.667.667,0,0,0,63.667,280Z" transform="translate(-38.333 -222.333)" fill="#548aff"/>
    <path id="Path_1384" data-name="Path 1384" d="M224,136h2v9h-2Z" transform="translate(-199.333 -84.333)" fill="#7dafff"/>
    <path id="Path_1385" data-name="Path 1385" d="M272,192h2v6.667h-2Z" transform="translate(-245.333 -138)" fill="#548aff"/>
    <path id="Path_1386" data-name="Path 1386" d="M320,296h2v2.333h-2Z" transform="translate(-291.333 -237.667)" fill="#f5714f"/>
    <path id="Path_1387" data-name="Path 1387" d="M368,208h2v6h-2Z" transform="translate(-337.333 -153.333)" fill="#ffc431"/>
    <path id="Path_1388" data-name="Path 1388" d="M416,136h2v9h-2Z" transform="translate(-383.333 -84.333)" fill="#548aff"/>
    <path id="Path_1389" data-name="Path 1389" d="M17,280h9.667a1,1,0,0,0,1-1v-.667a.333.333,0,0,0-.333-.333h-1v-1.667h-.667V278H18v-5a.334.334,0,0,1,.333-.333h5.333V272H18.333a1,1,0,0,0-1,1v5h-1a.333.333,0,0,0-.333.333V279A1,1,0,0,0,17,280Zm-.333-1.333H27V279a.334.334,0,0,1-.333.333H17a.334.334,0,0,1-.333-.333Z" transform="translate(0 -214.667)"/>
    <path id="Path_1390" data-name="Path 1390" d="M127,128.333a.333.333,0,0,0-.333-.333h-2a.333.333,0,0,0-.333.333V131h-1.667a.333.333,0,0,0-.333.333v3.333H121v-4a.333.333,0,0,0-.333-.333H119v-2a.333.333,0,0,0-.333-.333h-2a.333.333,0,0,0-.333.333V137H112v.667h16V137h-1Zm-10,.333h1.333V137H117ZM119,131h1.333v6H119Zm2,4.333h1.333V137H121Zm2-3.667h1.333V137H123ZM125,137v-8.333h1.333V137Z" transform="translate(-92 -76.667)"/>
    <path id="Path_1391" data-name="Path 1391" d="M80,344h.667v.667H80Z" transform="translate(-61.333 -283.667)"/>
    <path id="Path_1392" data-name="Path 1392" d="M273.333,50H272v.667h1v1.667a.333.333,0,0,0,.333.333h2a.333.333,0,0,0,.236-.1L279,49.138V50h.667V48.333a.333.333,0,0,0-.333-.333h-1.667v.667h.862L275.2,52h-1.529V50.333a.333.333,0,0,0-.333-.333Z" transform="translate(-245.333)"/>
    <path id="Path_1393" data-name="Path 1393" d="M224,96h1v.667h-1Z" transform="translate(-199.333 -46)"/>
  </g>
</svg>
