<svg id="change_pass_icon" xmlns="http://www.w3.org/2000/svg" width="20" height="20" viewBox="0 0 20 20">
  <path id="Path_1337" data-name="Path 1337" d="M104.072,53.442a.584.584,0,0,1-.248.232l-1.263.624a.586.586,0,0,1-.553-.018L94.765,50.1a4.491,4.491,0,1,1,1.758-3.045l2.693,1.555,1.228-.079a.586.586,0,0,1,.563.325l.451.912,1.016-.066a.586.586,0,0,1,.588.382l1.053,2.863A.586.586,0,0,1,104.072,53.442Z" transform="translate(-84.151 -40.375)" fill="#fa9100"/>
  <path id="Path_1338" data-name="Path 1338" d="M62.447,58.505a.584.584,0,0,1-.33.077l-1.406-.091a.586.586,0,0,1-.47-.292l-4.183-7.244A4.49,4.49,0,1,1,59.1,49.2l1.555,2.693,1.1.546a.586.586,0,0,1,.325.563l-.066,1.016.912.451a.586.586,0,0,1,.318.625l-.52,3.006a.586.586,0,0,1-.285.408Z" transform="translate(-49.03 -40.363)" fill="#a76100"/>
  <path id="Path_1339" data-name="Path 1339" d="M4.492,60.359a.584.584,0,0,1-.325-.1L3,59.48a.586.586,0,0,1-.261-.488V50.627a4.493,4.493,0,1,1,6.25-4.135A4.5,4.5,0,0,1,6.25,50.627v3.11l.683,1.024a.586.586,0,0,1,0,.65l-.565.847.565.847a.586.586,0,0,1-.037.7L4.942,60.149a.585.585,0,0,1-.45.211Z" transform="translate(0 -40.359)" fill="#ffe16e"/>
  <path id="Path_1340" data-name="Path 1340" d="M115.45,60.149,117.4,57.8a.586.586,0,0,0,.037-.7l-.565-.847.565-.847a.586.586,0,0,0,0-.65l-.683-1.024v-3.11A4.493,4.493,0,0,0,115,42V60.359A.585.585,0,0,0,115.45,60.149Z" transform="translate(-110.508 -40.359)" fill="#ff8e00"/>
  <path id="Path_1341" data-name="Path 1341" d="M100,4.57V.586a.586.586,0,0,1,1.172,0V4.57Z" transform="translate(-96.094)" fill="#00337a"/>
  <path id="Path_1342" data-name="Path 1342" d="M115.586,4.57V.586A.586.586,0,0,0,115,0V4.57Z" transform="translate(-110.508)" fill="#002659"/>
  <path id="Path_1343" data-name="Path 1343" d="M82.148,103.172H80.586a.586.586,0,0,1,0-1.172h1.563a.586.586,0,0,1,0,1.172Z" transform="translate(-76.875 -98.016)" fill="#00429b"/>
  <path id="Path_1344" data-name="Path 1344" d="M115.781,102H115v1.172h.781a.586.586,0,0,0,0-1.172Z" transform="translate(-110.508 -98.016)" fill="#00337a"/>
</svg>
