<svg xmlns="http://www.w3.org/2000/svg" width="20" height="19.999" viewBox="0 0 20 19.999">
  <g id="contacts_icon" transform="translate(-6.306 -6.31)">
    <path id="Path_1394" data-name="Path 1394" d="M23.833,84.289H18.606a31.706,31.706,0,0,1-2.3,3.184,31.705,31.705,0,0,1-2.3-3.184H8.779L6.306,90.772h20Z" transform="translate(0 -64.463)" fill="#dfeef4"/>
    <path id="Path_1395" data-name="Path 1395" d="M38.612,6.31a5.323,5.323,0,0,0-5.323,5.323c-.031,5.079,5.323,11.377,5.323,11.377s5.354-6.3,5.323-11.377A5.323,5.323,0,0,0,38.612,6.31Zm0,7.581a2.258,2.258,0,1,1,2.258-2.258,2.258,2.258,0,0,1-2.258,2.258Z" transform="translate(-22.306)" fill="#f45858"/>
    <path id="Path_1396" data-name="Path 1396" d="M44.59,85.793l-9.98,3.55L30.72,84.29h3.468a31.677,31.677,0,0,0,2.3,3.184,31.677,31.677,0,0,0,2.3-3.184h5.228Z" transform="translate(-20.182 -64.464)" fill="#f2da30"/>
    <path id="Path_1397" data-name="Path 1397" d="M29.96,104.934l9.879-3.514,2.7,3.514Z" transform="translate(-19.554 -78.625)" fill="#3ea2e5"/>
  </g>
</svg>
