<svg height="512" viewBox="0 0 512 512" width="512" xmlns="http://www.w3.org/2000/svg"><g><g><path d="m240 84v180h-192v-180l70.4-44h51.2z" fill="#e0e0e2"/><path d="m464 344h32v104h-32z" fill="#ffda44"/><path d="m384 448v20a20 20 0 0 1 -20 20h-216a20 20 0 0 1 -20-20v-232a20 20 0 0 1 20-20h216a20 20 0 0 1 20 20z" fill="#806749"/><path d="m208 216h96v96h-96z" fill="#ffda44"/><path d="m152 408h56v56h-56z" fill="#ffda44"/><path d="m272 104v32l-128-80-128 80v-32l32-20 70.4-44 25.6-16 25.6 16 70.4 44z" fill="#ff9811"/><g><path d="m464 352v80h-32l-15.66 15.55-112 .434a8 8 0 0 1 -8.031-7.969l-.031-8a8 8 0 0 1 7.969-8.031l-16 .062a8 8 0 0 1 -8.031-7.969l-.031-8a8 8 0 0 1 7.969-8.031l-8 .031a8 8 0 0 1 -8.031-7.969l-.031-8a8 8 0 0 1 7.969-8.031l24-.093a8 8 0 0 1 -8.031-7.969l-.031-8a8 8 0 0 1 7.969-8.031l48-.187a8 8 0 0 1 -8.031-7.968l-.031-8a7.934 7.934 0 0 1 8.094-7.829h64l16 24z" fill="#ffdaaa"/><g fill="none"><path d="m351.969 351.798 23.999-.093"/><path d="m296.062 376.015 48-.186"/><path d="m296.248 424.015 48-.186"/><path d="m288.155 400.046 56-.217"/></g></g></g><g><path d="m496 336h-32a8 8 0 0 0 -8 8h-19.72l-13.62-20.44a8.033 8.033 0 0 0 -6.66-3.56h-24v-84a28.031 28.031 0 0 0 -28-28h-116v-77.57l19.76 12.35a7.994 7.994 0 0 0 12.24-6.78v-32a7.987 7.987 0 0 0 -3.76-6.78l-128-80a7.964 7.964 0 0 0 -8.48 0l-128 80a7.987 7.987 0 0 0 -3.76 6.78v32a7.994 7.994 0 0 0 12.24 6.78l19.76-12.35v133.57a8 8 0 0 0 8 8h72v196a28.031 28.031 0 0 0 28 28h216a28.031 28.031 0 0 0 28-28v-12.36l24.37-.09a8.017 8.017 0 0 0 5.61-2.32l13.32-13.23h20.7v8a8 8 0 0 0 8 8h32a8 8 0 0 0 8-8v-104a8 8 0 0 0 -8-8zm-200-112v80h-80v-80zm-272-102.43v-13.14l120-75 120 75v13.14l-115.76-72.35a7.978 7.978 0 0 0 -8.48 0zm96 114.43v20h-64v-135.57l88-55 88 55v87.57h-84a28.031 28.031 0 0 0 -28 28zm256 232a12.01 12.01 0 0 1 -12 12h-216a12.01 12.01 0 0 1 -12-12v-232a12.01 12.01 0 0 1 12-12h52v88a8 8 0 0 0 8 8h96a8 8 0 0 0 8-8v-88h52a12.01 12.01 0 0 1 12 12v84h-24.03a15.973 15.973 0 0 0 -16.06 15.86l.03 8-32 .12a16 16 0 0 0 -15.94 16.07l.03 8-8 .03a16.013 16.013 0 0 0 -15.94 16.06l.03 8a16.053 16.053 0 0 0 8.19 13.9 15.764 15.764 0 0 0 -.12 2.07l.03 8a16.015 16.015 0 0 0 16 15.94h.06l.03 8a16 16 0 0 0 16 15.93h.06l71.63-.27zm80-44h-24a8 8 0 0 0 -5.64 2.32l-13.33 13.24-108.72.42-.03-8 40-.15a8 8 0 0 0 -.03-16h-.03l-56 .22-.03-8 56-.22a8 8 0 0 0 -.03-16h-.04l-64 .25-.03-8 15.97-.06h.03l48-.19a8 8 0 0 0 -.03-16h-.03l-39.97.15h-.03l-.03-8 48-.18 24-.09a8 8 0 0 0 -.03-16h-.03l-24 .09-.03-7.79a.222.222 0 0 1 .09-.01h59.72l13.62 20.44a8.033 8.033 0 0 0 6.66 3.56h24zm32 16h-16v-88h16z"/><path d="m208 400h-56a8 8 0 0 0 -8 8v56a8 8 0 0 0 8 8h56a8 8 0 0 0 8-8v-56a8 8 0 0 0 -8-8zm-8 56h-40v-40h40z"/><path d="m136 192a7.989 7.989 0 0 0 5.122-1.854l48-40a8 8 0 1 0 -10.242-12.292l-43.412 36.176-19.03-12.686a8 8 0 1 0 -8.876 13.312l24 16a7.984 7.984 0 0 0 4.438 1.344z"/></g></g></svg>