<svg xmlns="http://www.w3.org/2000/svg" width="20" height="20" viewBox="0 0 20 20">
  <g id="pricelist_icon" transform="translate(8361 -16333)">
    <path id="Path_1367" data-name="Path 1367" d="M192.742,79.578h-8.594A2.151,2.151,0,0,1,182,77.43V67.273a.586.586,0,0,1,.117-.352l3.516-4.687A.586.586,0,0,1,186.1,62h4.688a.586.586,0,0,1,.469.234l3.516,4.688a.586.586,0,0,1,.117.352V77.43A2.151,2.151,0,0,1,192.742,79.578Z" transform="translate(-8535.891 16273.422)" fill="#ff8659"/>
    <path id="Path_1368" data-name="Path 1368" d="M353.328,66.922l-3.516-4.687a.586.586,0,0,0-.469-.234H347V79.578h4.3a2.151,2.151,0,0,0,2.148-2.148V67.273A.586.586,0,0,0,353.328,66.922Z" transform="translate(-8694.445 16273.422)" fill="#ff6326"/>
    <path id="Path_1369" data-name="Path 1369" d="M6.7,17.3.628,11.221a2.151,2.151,0,0,1,0-3.038L7.809,1A.586.586,0,0,1,8.141.836l5.8-.829a.586.586,0,0,1,.5.166l3.315,3.315a.586.586,0,0,1,.166.5l-.829,5.8a.586.586,0,0,1-.166.331L9.743,17.3a2.151,2.151,0,0,1-3.038,0Z" transform="translate(-8360.999 16332.999)" fill="#fff16b"/>
    <path id="Path_1072" data-name="Path 1072" d="M5.417,1028.36l-.417.833H6.25a2.069,2.069,0,0,1,1.807.918,1.8,1.8,0,0,1,.264.748h-2.9l-.417.833H8.218a1.826,1.826,0,0,1-.146.308,2.016,2.016,0,0,1-1.764.942H5v.833c1.017,1.493,2.027,3.058,3.03,4.584h.945l-3.013-4.583a2.957,2.957,0,0,0,2.821-1.343,2.628,2.628,0,0,0,.3-.741H10l.417-.833H9.153a2.623,2.623,0,0,0-.391-1.191,2.713,2.713,0,0,0-.387-.475H10l.417-.833Z" transform="translate(-8359.797 15309.439)" fill="#ff6326"/>
    <path id="Path_1370" data-name="Path 1370" d="M107.289,54.777l.829-5.8a.586.586,0,0,0-.166-.5l-1.657-1.657-12.43,12.43L96.9,62.29a2.151,2.151,0,0,0,3.038,0l7.182-7.182a.586.586,0,0,0,.166-.331Z" transform="translate(-8451.198 16288.007)" fill="#ffb454"/>
    <g id="Group_4487" data-name="Group 4487" transform="translate(-8347.39 16333)">
      <path id="Path_1375" data-name="Path 1375" d="M352.567.172a.586.586,0,0,0-.829,0l-3.315,3.315.829.829L352.567,1a.586.586,0,0,0,0-.829Z" transform="translate(-348.424 0)" fill="#00429b"/>
      <path id="Path_1376" data-name="Path 1376" d="M362.759,5.222a.586.586,0,0,0,0-.829L359.03,8.122l.414.414Z" transform="translate(-358.616 -4.221)" fill="#002659"/>
    </g>
    <g id="Group_4488" data-name="Group 4488" transform="translate(-8348.39 16335.486)">
      <path id="Path_1377" data-name="Path 1377" d="M325.061,66.468a.584.584,0,0,1-.414-.172l-1.657-1.657a.586.586,0,0,1,.829-.829l1.657,1.657a.586.586,0,0,1-.414,1Z" transform="translate(-322.818 -63.639)" fill="#ff8659"/>
      <path id="Path_1378" data-name="Path 1378" d="M350.082,90.075l-.829-.829-.829.829.829.829a.586.586,0,0,0,.829-.829Z" transform="translate(-347.425 -88.246)" fill="#ff6326"/>
    </g>
    <path id="Path_1379" data-name="Path 1379" d="M5.417,1028.36l-.417.833H6.25a2.069,2.069,0,0,1,1.807.918,1.8,1.8,0,0,1,.264.748h-2.9l-.417.833H8.218a1.826,1.826,0,0,1-.146.308,2.016,2.016,0,0,1-1.764.942H5v.833c1.017,1.493,2.027,3.058,3.03,4.584h.945l-3.013-4.583a2.957,2.957,0,0,0,2.821-1.343,2.628,2.628,0,0,0,.3-.741H10l.417-.833H9.153a2.623,2.623,0,0,0-.391-1.191,2.713,2.713,0,0,0-.387-.475H10l.417-.833Z" transform="translate(-8359.797 15309.439)" fill="#ff8659"/>
    <path id="Intersection_1" data-name="Intersection 1" d="M2.423,7.5C1.62,6.278.812,5.031,0,3.816l.571-.571L3.368,7.5ZM3.816,0H4.81L4.393.833H3.481a2.624,2.624,0,0,1-.3.741A2.748,2.748,0,0,1,.927,2.889Z" transform="translate(-8354.19 16340.3)" fill="#ff6326"/>
  </g>
</svg>
