<svg xmlns="http://www.w3.org/2000/svg" width="20" height="20" viewBox="0 0 20 20">
  <g id="support_icon" transform="translate(0)">
    <g id="Group_4424" data-name="Group 4424" transform="translate(9.453)">
      <path id="Path_1362" data-name="Path 1362" d="M243.5,10.5a.586.586,0,0,1-.362-.541V8.1a1.762,1.762,0,0,1-1.172-1.658V1.758A1.76,1.76,0,0,1,243.729,0h7.032a1.76,1.76,0,0,1,1.758,1.758V6.446A1.76,1.76,0,0,1,250.761,8.2h-4.445l-2.172,2.172a.586.586,0,0,1-.639.127Z" transform="translate(-241.971)" fill="#80bfff"/>
    </g>
    <path id="Path_1363" data-name="Path 1363" d="M380.487,0h-3.516V8.2h3.516a1.76,1.76,0,0,0,1.758-1.758V1.758A1.76,1.76,0,0,0,380.487,0Z" transform="translate(-362.245)" fill="#69f"/>
    <g id="_x32_4_hours_service_1_" transform="translate(0 3.245)">
      <g id="Group_4428" data-name="Group 4428" transform="translate(0)">
        <g id="Group_4427" data-name="Group 4427">
          <g id="Group_4426" data-name="Group 4426">
            <g id="Group_4425" data-name="Group 4425">
              <path id="Path_1364" data-name="Path 1364" d="M6.374,97.6,2.231,93.454a7.624,7.624,0,0,1-.934-9.64,1.682,1.682,0,0,1,1.243-.732,1.779,1.779,0,0,1,1.432.513l2.4,2.4a1.759,1.759,0,0,1,0,2.486l-.829.829a.587.587,0,0,0,0,.829l4.143,4.143a.586.586,0,0,0,.829,0l.829-.829a1.761,1.761,0,0,1,2.487,0l2.4,2.4a1.777,1.777,0,0,1,.514,1.431,1.688,1.688,0,0,1-.734,1.245,7.626,7.626,0,0,1-9.64-.934Z" transform="translate(0 -83.073)" fill="#5c6699"/>
            </g>
          </g>
        </g>
      </g>
      <g id="Group_4429" data-name="Group 4429" transform="translate(11.796 0.271)">
        <circle id="Ellipse_34" data-name="Ellipse 34" cx="0.586" cy="0.586" r="0.586" fill="#edf5ff"/>
      </g>
      <g id="Group_4430" data-name="Group 4430" transform="translate(14.14 0.271)">
        <circle id="Ellipse_35" data-name="Ellipse 35" cx="0.586" cy="0.586" r="0.586" fill="#edf5ff"/>
      </g>
      <g id="Group_4433" data-name="Group 4433" transform="translate(16.484 0.271)">
        <g id="Group_4432" data-name="Group 4432">
          <g id="Group_4431" data-name="Group 4431">
            <circle id="Ellipse_36" data-name="Ellipse 36" cx="0.586" cy="0.586" r="0.586" fill="#d5e8fe"/>
          </g>
        </g>
      </g>
    </g>
    <path id="Path_1365" data-name="Path 1365" d="M377.557,90.586a.586.586,0,0,0-.586-.586v1.172A.586.586,0,0,0,377.557,90.586Z" transform="translate(-362.245 -86.484)" fill="#d5e8fe"/>
    <path id="Path_1366" data-name="Path 1366" d="M121.838,323.325a1.688,1.688,0,0,0,.734-1.245,1.777,1.777,0,0,0-.514-1.431l-2.4-2.4a1.761,1.761,0,0,0-2.487,0l-.829.829a.586.586,0,0,1-.829,0L113.442,317l-3.315,3.315,2.071,2.072A7.626,7.626,0,0,0,121.838,323.325Z" transform="translate(-105.825 -304.62)" fill="#404a80"/>
  </g>
</svg>
