<svg id="upload_invoice_icon" xmlns="http://www.w3.org/2000/svg" xmlns:xlink="http://www.w3.org/1999/xlink" width="20" height="20" viewBox="0 0 20 20">
  <defs>
    <linearGradient id="linear-gradient" x1="0.5" y1="0.208" x2="0.5" y2="1" gradientUnits="objectBoundingBox">
      <stop offset="0" stop-color="#ff9100"/>
      <stop offset="1" stop-color="#e63950"/>
    </linearGradient>
    <linearGradient id="linear-gradient-2" x1="0.5" y1="0.208" x2="0.5" y2="1" gradientUnits="objectBoundingBox">
      <stop offset="0" stop-color="#fdbf00"/>
      <stop offset="1" stop-color="#ff9100"/>
    </linearGradient>
    <linearGradient id="linear-gradient-3" x1="0.114" y1="0.089" x2="0.698" y2="0.845" gradientUnits="objectBoundingBox">
      <stop offset="0" stop-color="#ffda2d"/>
      <stop offset="1" stop-color="#fdbf00"/>
    </linearGradient>
    <linearGradient id="linear-gradient-4" x1="0.389" y1="0.415" x2="0.846" y2="0.763" gradientUnits="objectBoundingBox">
      <stop offset="0" stop-color="#76e2f8"/>
      <stop offset="1" stop-color="#48b2e3"/>
    </linearGradient>
    <linearGradient id="linear-gradient-7" x1="0.5" y1="0.42" x2="0.5" y2="1.346" gradientUnits="objectBoundingBox">
      <stop offset="0" stop-color="#ff9100" stop-opacity="0"/>
      <stop offset="1" stop-color="#ff9100"/>
    </linearGradient>
    <linearGradient id="linear-gradient-8" x1="1.007" y1="0.5" x2="0.243" y2="0.5" xlink:href="#linear-gradient-7"/>
    <linearGradient id="linear-gradient-9" x1="0.225" y1="0.341" x2="1.261" y2="1.152" gradientUnits="objectBoundingBox">
      <stop offset="0" stop-color="#b9dd39"/>
      <stop offset="1" stop-color="#0b799d"/>
    </linearGradient>
    <linearGradient id="linear-gradient-10" x1="0.145" y1="0.53" x2="-2.573" y2="-0.225" gradientUnits="objectBoundingBox">
      <stop offset="0" stop-color="#0b799d" stop-opacity="0"/>
      <stop offset="0.364" stop-color="#096380" stop-opacity="0.365"/>
      <stop offset="0.76" stop-color="#084f67" stop-opacity="0.761"/>
      <stop offset="1" stop-color="#07485e"/>
    </linearGradient>
  </defs>
  <g id="Group_4522" data-name="Group 4522" transform="translate(0 0)">
    <path id="Path_1501" data-name="Path 1501" d="M99.155,3.118H92.313V1.169A1.169,1.169,0,0,1,93.482,0h4.5a1.169,1.169,0,0,1,1.169,1.169Z" transform="translate(-88.693 0)" fill="url(#linear-gradient)"/>
    <path id="Path_1502" data-name="Path 1502" d="M54.324,3.118H47.482V1.169A1.169,1.169,0,0,1,48.651,0h4.5a1.169,1.169,0,0,1,1.169,1.169Z" transform="translate(-45.62 0)" fill="url(#linear-gradient-2)"/>
    <path id="Path_1503" data-name="Path 1503" d="M6.842,2.219V1.169A1.169,1.169,0,0,0,5.673,0h-4.5A1.169,1.169,0,0,0,0,1.169V13.794a1.666,1.666,0,0,0,1.666,1.666H18.334A1.666,1.666,0,0,0,20,13.794v-9.4a1.666,1.666,0,0,0-1.666-1.666H7.351a.509.509,0,0,1-.509-.509Z" transform="translate(0 0)" fill="url(#linear-gradient-3)"/>
    <g id="Group_4521" data-name="Group 4521" transform="translate(14.371 3.785)">
      <path id="Path_1504" data-name="Path 1504" d="M367.283,97.759h-.4a.417.417,0,0,1-.417-.417v-.4a.417.417,0,0,1,.417-.417h.4a.417.417,0,0,1,.417.417v.4A.417.417,0,0,1,367.283,97.759Z" transform="translate(-366.465 -96.525)" fill="url(#linear-gradient-4)"/>
      <path id="Path_1505" data-name="Path 1505" d="M407.414,97.759h-.4a.417.417,0,0,1-.417-.417v-.4a.417.417,0,0,1,.417-.417h.4a.417.417,0,0,1,.417.417v.4A.417.417,0,0,1,407.414,97.759Z" transform="translate(-405.022 -96.525)" fill="url(#linear-gradient-4)"/>
      <path id="Path_1506" data-name="Path 1506" d="M447.545,97.759h-.4a.417.417,0,0,1-.417-.417v-.4a.417.417,0,0,1,.417-.417h.4a.417.417,0,0,1,.417.417v.4A.417.417,0,0,1,447.545,97.759Z" transform="translate(-443.58 -96.525)" fill="url(#linear-gradient-4)"/>
    </g>
    <path id="Path_1507" data-name="Path 1507" d="M0,304.771v1.842a1.666,1.666,0,0,0,1.666,1.666H18.334A1.666,1.666,0,0,0,20,306.613v-1.842Z" transform="translate(0 -292.819)" fill="url(#linear-gradient-7)"/>
  </g>
  <path id="Path_1508" data-name="Path 1508" d="M138.721,177.692l-8.284-8.127a1.04,1.04,0,0,0-1.815.1l-3.958,6.373a1.189,1.189,0,0,0,.222,1.623,2.294,2.294,0,0,0,.283.247H137.9A1.657,1.657,0,0,0,138.721,177.692Z" transform="translate(-119.565 -162.45)" fill="url(#linear-gradient-8)"/>
  <g id="Group_4523" data-name="Group 4523" transform="translate(4.749 6.591)">
    <path id="Path_1509" data-name="Path 1509" d="M130.343,176.95h-1.162v3.541a.99.99,0,0,1-.99.99h-3.455a.99.99,0,0,1-.99-.99V176.95h-1.4a1.252,1.252,0,0,1-1.061-1.918l4-6.373a1.252,1.252,0,0,1,2.122,0l4,6.373A1.252,1.252,0,0,1,130.343,176.95Z" transform="translate(-121.095 -168.073)" fill="url(#linear-gradient-9)"/>
    <path id="Path_1510" data-name="Path 1510" d="M259,176.95h-1.162v3.541a.99.99,0,0,1-.99.99H255V168.073a1.242,1.242,0,0,1,1.061.587l4,6.373A1.252,1.252,0,0,1,259,176.95Z" transform="translate(-249.749 -168.073)" fill="url(#linear-gradient-10)"/>
  </g>
</svg>
