<svg xmlns="http://www.w3.org/2000/svg" width="20" height="20" viewBox="0 0 20 20">
  <g id="warranty_icon" transform="translate(-0.004)">
    <g id="Group_4416" data-name="Group 4416" transform="translate(0.004 9.05)">
      <path id="Path_1345" data-name="Path 1345" d="M258.851,238.573,255.063,232a.626.626,0,0,0-.884-.212l-5.25,3.425a.627.627,0,0,0-.2.836l3.625,6.275a.625.625,0,0,0,.541.313.59.59,0,0,0,.081-.005.628.628,0,0,0,.523-.459l.976-3.67,3.67.986a.626.626,0,0,0,.7-.915Z" transform="translate(-238.934 -231.685)" fill="#2196f3"/>
      <path id="Path_1346" data-name="Path 1346" d="M10.007,235.211l-5.25-3.425a.625.625,0,0,0-.883.211L.087,238.571a.625.625,0,0,0,.7.916l3.67-.986.976,3.67a.627.627,0,0,0,.521.459c.028,0,.056,0,.083,0a.625.625,0,0,0,.541-.312l3.625-6.275A.623.623,0,0,0,10.007,235.211Z" transform="translate(-0.004 -231.683)" fill="#2196f3"/>
    </g>
    <circle id="Ellipse_33" data-name="Ellipse 33" cx="6.875" cy="6.875" r="6.875" transform="translate(3.128)" fill="#ffc107"/>
    <path id="Path_1347" data-name="Path 1347" d="M167.436,67.338A.627.627,0,0,0,167,66.93l-1.774-.464-.973-1.638a.648.648,0,0,0-1.074,0l-.973,1.638-1.774.464a.625.625,0,0,0-.331,1l1.188,1.488-.129,1.944a.625.625,0,0,0,.869.616l1.686-.716,1.688.716a.612.612,0,0,0,.244.05.625.625,0,0,0,.624-.666l-.13-1.944,1.188-1.488A.627.627,0,0,0,167.436,67.338Z" transform="translate(-153.714 -62.023)" fill="#fafafa"/>
  </g>
</svg>
