<svg xmlns="http://www.w3.org/2000/svg" width="20" height="22" viewBox="0 0 20 22">
  <g id="faq_icon" transform="translate(-52 -146)">
    <path id="Path_925" data-name="Path 925" d="M1.8,120A1.883,1.883,0,0,0,0,121.934v9.023a1.883,1.883,0,0,0,1.8,1.934h.586V136.2a.647.647,0,0,0,.362.6.535.535,0,0,0,.224.049.56.56,0,0,0,.414-.189l3.383-3.764h6.789a1.852,1.852,0,0,0,1.758-1.934v-9.023A1.852,1.852,0,0,0,13.555,120Zm0,0" transform="translate(52 31.156)" fill="#4bb9ec"/>
    <path id="Path_926" data-name="Path 926" d="M95.141,301.289H91.586a.647.647,0,0,1,0-1.289h3.555a.647.647,0,0,1,0,1.289Zm0,0" transform="translate(-35.445 -141.109)" fill="#575f64"/>
    <path id="Path_927" data-name="Path 927" d="M186.361,221.05a.233.233,0,0,1-.075.064l-3.455,1.978a.539.539,0,0,1-.655-.137.681.681,0,0,1-.124-.72l1.8-3.8a.246.246,0,0,1,.058-.082l1.989.51.174.046Zm0,0" transform="translate(-122.89 -62.97)" fill="#ffcebf"/>
    <path id="Path_928" data-name="Path 928" d="M415.815,2.926l-1.243,1.367-2.047-.483-.058-.009-.381-2.242L413.329.191a.544.544,0,0,1,.829,0l1.657,1.823a.684.684,0,0,1,0,.911Zm0,0" transform="translate(-343.989 146)" fill="#7c8388"/>
    <path id="Path_929" data-name="Path 929" d="M190.419,230.272l.29,2.142a.233.233,0,0,1-.075.064l-3.455,1.978a.539.539,0,0,1-.655-.137l3.721-4.093Zm0,0" transform="translate(-127.238 -74.334)" fill="#ffb99c"/>
    <path id="Path_930" data-name="Path 930" d="M426.618,27.491l-1.243,1.367-2.047-.483,2.461-2.707.829.912a.684.684,0,0,1,0,.911Zm0,0" transform="translate(-354.792 121.435)" fill="#575f64"/>
    <path id="Path_931" data-name="Path 931" d="M240.429,39.008l-7.021,7.723a.342.342,0,0,1-.091.064l-2.453-2.7a.381.381,0,0,1,.058-.1l7.021-7.723Zm0,0" transform="translate(-169.846 111.285)" fill="#ff641a"/>
    <path id="Path_932" data-name="Path 932" d="M270.6,69.461l-7.021,7.723a.343.343,0,0,1-.091.064L262.258,75.9l7.1-7.805Zm0,0" transform="translate(-200.014 80.832)" fill="#f03800"/>
  </g>
</svg>
