<svg height="488pt" viewBox="0 -4 488.23122 488" width="488pt" xmlns="http://www.w3.org/2000/svg"><path d="m448.167969 216.269531c13.253906 0 24 10.742188 24 24 0 13.253907-10.746094 24-24 24-.453125.011719-.910157-.015625-1.359375-.082031-12.675782-.734375-22.578125-11.222656-22.578125-23.917969 0-12.695312 9.902343-23.1875 22.578125-23.921875.449218-.066406.90625-.09375 1.359375-.078125zm0 0" fill="#898890"/><path d="m480.167969 88.269531c0 31.601563-18.625 60.234375-47.519531 73.039063-10.207032 4.605468-21.28125 6.980468-32.480469 6.960937-44.183594 0-80-35.820312-80-80-.027344-12.578125 2.960937-24.980469 8.71875-36.160156 16.722656-33.019531 53.917969-50.246094 89.917969-41.644531 35.996093 8.605468 61.382812 40.792968 61.363281 77.804687zm0 0" fill="#ffda44"/><g fill="#ffdaaa"><path d="m441.046875 128.269531h-81.757813c0-4.515625.457032-9.019531 1.359376-13.441406 1.960937-11.359375 7.382812-21.835937 15.519531-30v-.078125c6.296875-6.496094 14.957031-10.164062 24-10.164062 9.046875 0 17.703125 3.667968 24 10.164062v.078125c8.136719 8.164063 13.558593 18.640625 15.519531 30 .90625 4.421875 1.359375 8.925781 1.359375 13.441406zm0 0"/><path d="m418.328125 49.949219c.226563 1.132812.332031 2.285156.320313 3.4375-.003907 4.539062-1.429688 8.957031-4.078126 12.640625-3.324218 4.664062-8.675781 7.457031-14.402343 7.519531-10.664063-.472656-18.929688-9.492187-18.480469-20.160156-.011719-1.152344.09375-2.304688.320312-3.4375.839844-9.40625 8.71875-16.613281 18.160157-16.613281 9.441406 0 17.320312 7.207031 18.160156 16.613281zm0 0"/><path d="m335.449219 472.269531h-190.5625c-.042969-10.738281.949219-21.453125 2.960937-32 4.621094-26.980469 17.28125-51.9375 36.320313-71.601562v-.078125c14.734375-15.171875 34.859375-23.910156 56-24.320313 21.144531.410157 41.269531 9.148438 56 24.320313v.078125c19.039062 19.664062 31.699219 44.621093 36.320312 71.601562 2.011719 10.546875 3.003907 21.261719 2.960938 32zm0 0"/><path d="m278.25 320.269531c-1.109375 2.128907-2.394531 4.160157-3.839844 6.078125-7.898437 11.101563-20.621094 17.761719-34.242187 17.921875-13.445313-1.15625-25.785157-7.902343-34.015625-18.597656-8.230469-10.695313-11.589844-24.351563-9.265625-37.644531 2.65625-22.109375 21.027343-38.984375 43.28125-39.757813 22.253906.773438 40.625 17.648438 43.28125 39.757813.484375 2.71875.726562 5.476562.71875 8.242187.035156 8.363281-2 16.609375-5.917969 24zm0 0"/></g><path d="m264.167969 32.269531c.015625.453125-.011719.910157-.078125 1.359375-.734375 12.671875-11.226563 22.574219-23.921875 22.574219-12.695313 0-23.1875-9.902344-23.917969-22.574219-.066406-.449218-.09375-.90625-.082031-1.359375 0-13.257812 10.746093-24 24-24 13.253906 0 24 10.742188 24 24zm0 0" fill="#898890"/><path d="m168.167969 88.269531c0 44.179688-35.816407 80-80 80-13.707031.035157-27.1875-3.492187-39.121094-10.242187-29.574219-16.550782-45.511719-49.945313-39.777344-83.351563 5.738281-33.402343 31.902344-59.570312 65.308594-65.304687 33.402344-5.738282 66.796875 10.199218 83.351563 39.777344 6.75 11.929687 10.277343 25.414062 10.238281 39.121093zm0 0" fill="#ffda44"/><path d="m129.046875 128.269531h-81.757813c0-4.515625.457032-9.019531 1.359376-13.441406 1.960937-11.359375 7.382812-21.835937 15.519531-30v-.078125c6.378906-6.375 14.984375-10.019531 24-10.160156 9.015625.140625 17.625 3.785156 24 10.160156v.078125c8.136719 8.164063 13.558593 18.640625 15.519531 30 .90625 4.421875 1.359375 8.925781 1.359375 13.441406zm0 0" fill="#ffdaaa"/><path d="m106.328125 49.949219c.226563 1.132812.332031 2.285156.320313 3.4375-.003907 4.539062-1.429688 8.957031-4.078126 12.640625-3.324218 4.664062-8.675781 7.457031-14.402343 7.519531-10.664063-.472656-18.929688-9.492187-18.480469-20.160156-.011719-1.152344.09375-2.304688.320312-3.4375 1.121094-9.269531 8.832032-16.332031 18.160157-16.640625 9.328125.308594 17.039062 7.371094 18.160156 16.640625zm0 0" fill="#ffdaaa"/><path d="m33.527344 216.347656c12.675781.734375 22.578125 11.226563 22.578125 23.921875 0 12.695313-9.902344 23.183594-22.578125 23.917969-.449219.066406-.902344.09375-1.359375.082031-13.253907 0-24-10.746093-24-24 0-13.257812 10.746093-24 24-24 .457031-.015625.910156.011719 1.359375.078125zm0 0" fill="#898890"/><path d="m453.769531 208.835938c-2.167969-14.867188-5.890625-29.464844-11.105469-43.550782 32.308594-17.769531 50.105469-53.808594 44.570313-90.265625-5.53125-36.453125-33.21875-65.589843-69.347656-72.972656-36.125-7.382813-73.023438 8.554687-92.414063 39.917969-17.203125-7.441406-35.316406-12.566406-53.863281-15.25-2.667969-15.273438-15.929687-26.417969-31.4375-26.417969-15.503906 0-28.765625 11.144531-31.433594 26.417969-16.265625 2.371094-32.203125 6.605468-47.496093 12.617187-19.75-29.644531-55.417969-44.464843-90.359376-37.535156-34.9375 6.929687-62.257812 34.234375-69.195312 69.175781-6.941406 34.9375 7.867188 70.613282 37.503906 90.367188-6.015625 15.296875-10.25 31.230468-12.621094 47.496094-16.324218 2.886718-27.730468 17.769531-26.273437 34.28125 1.457031 16.511718 15.296875 29.167968 31.871094 29.152343.71875.007813 1.433593-.03125 2.144531-.113281 13.738281-.894531 25.335938-10.542969 28.71875-23.886719h106.578125c-6.1875 9.964844-10.308594 21.070313-12.113281 32.664063-.429688 2.398437-.742188 4.847656-.96875 7.335937h-12.359375v16h32v-16h-3.511719c.167969-1.601562.34375-3.136719.625-4.6875 2.132812-14.175781 8.5-27.375 18.269531-37.867187 12.457031-13.660156 30.089844-21.445313 48.578125-21.445313 18.488282 0 36.121094 7.785157 48.574219 21.445313 9.914063 10.808594 16.351563 24.339844 18.488281 38.847656.210938 1.097656.335938 2.402344.480469 3.707031h-11.503906v16h16v8h-22.304688c1.492188-5.207031 2.269531-10.589843 2.304688-16-.035157-29.390625-22.695313-53.792969-52-56-26.164063.667969-47.910157 20.363281-51.160157 46.335938-.566406 3.1875-.847656 6.421875-.839843 9.664062-.164063 17.882813 8.03125 34.816407 22.160156 45.78125-11.855469 4.753907-22.644531 11.828125-31.734375 20.800781-.230469.222657-.449219.460938-.648438.710938-19.863281 20.722656-33.074218 46.914062-37.9375 75.203125-2.117187 11.039063-3.171874 22.257813-3.160156 33.503906 0 4.417969 3.582032 8 8 8h190.640625c4.417969 0 8-3.582031 8-8 .015625-11.242187-1.039062-22.457031-3.152343-33.496093-4.863282-28.289063-18.074219-54.476563-37.925782-75.203126-.207031-.257812-.425781-.503906-.664062-.734374-9.089844-8.980469-19.882813-16.050782-31.746094-20.800782 4.121094-3.113281 7.773438-6.800781 10.847656-10.949218.664063-.90625 1.144532-1.90625 1.753906-2.832032h37.566407c4.417969 0 8-3.582031 8-8v-15.984375h8v-16h-12.351563c-.207031-2.335937-.496094-4.546875-.863281-6.457031-1.863281-11.894531-6.070313-23.296875-12.382813-33.542969h106.734376c3.382812 13.34375 14.980468 22.992188 28.71875 23.886719.710937.082031 1.429687.121094 2.144531.113281 16.578125.015625 30.414062-12.640625 31.875-29.152343 1.457031-16.511719-9.953125-31.394532-26.273438-34.28125zm-163.792969 164.894531c.1875.238281.390626.457031.609376.664062 17.878906 18.519531 29.746093 42.011719 34.039062 67.394531 1.421875 7.417969 2.316406 14.933594 2.671875 22.480469h-174.257813c.359376-7.554687 1.257813-15.070312 2.679688-22.496093 4.296875-25.378907 16.164062-48.867188 34.050781-67.378907.207031-.203125.40625-.417969.589844-.644531 13.160156-13.394531 31.039063-21.105469 49.808594-21.480469 18.769531.375 36.644531 8.078125 49.808593 21.460938zm-49.808593-37.460938c-20.949219-1.183593-37.023438-19.042969-36-40 0-2.351562.207031-4.695312.625-7.007812 2.011719-18.234375 17.046875-32.257813 35.375-32.992188 18.390625.761719 33.449219 14.871094 35.410156 33.175781.398437 2.25.59375 4.535157.589844 6.824219-.019531 5.484375-1.089844 10.914063-3.152344 16h-40.847656v16h29.511719c-6 5.121094-13.621094 7.953125-21.511719 8zm160-320c39.765625 0 72 32.234375 72 72 0 39.761719-32.234375 72-72 72s-72-32.238281-72-72c.042969-39.746093 32.253906-71.957031 72-72zm-160 0c8.835937 0 16 7.160157 16 16 0 8.835938-7.164063 16-16 16-8.835938 0-16-7.164062-16-16 0-8.839843 7.164062-16 16-16zm-224 72c0-39.765625 32.234375-72 72-72s72 32.234375 72 72c0 39.761719-32.234375 72-72 72-39.746094-.046875-71.957031-32.253906-72-72zm16.953125 167.925781c-.320313.007813-.636719.03125-.953125.074219-8.835938-.019531-15.984375-7.195312-15.96875-16.035156.019531-8.835937 7.195312-15.984375 16.035156-15.964844.292969.046875.589844.078125.886719.09375 8.457031.464844 15.078125 7.457031 15.078125 15.929688 0 8.46875-6.621094 15.460937-15.078125 15.925781zm149.328125-23.925781h-119.417969c-2.65625-10.351562-10.351562-18.671875-20.460938-22.128906 2.113282-14.039063 5.726563-27.808594 10.78125-41.074219 33.101563 14.324219 71.589844 6.980469 97.09375-18.519531 25.503907-25.503906 32.847657-63.996094 18.523438-97.09375 13.265625-5.054687 27.035156-8.671875 41.070312-10.785156 3.496094 10.089843 11.796876 17.769531 22.128907 20.464843v145.542969c-18.804688 1.863281-36.382813 10.203125-49.71875 23.59375zm234.855469 0h-119.488282c-13.300781-13.398437-30.859375-21.742187-49.648437-23.59375v-145.542969c10.328125-2.699218 18.625-10.375 22.113281-20.464843 16.511719 2.476562 32.640625 7.042969 48 13.601562-12.511719 31.773438-5.46875 67.921875 18.054688 92.675781 23.527343 24.753907 59.269531 33.625 91.640624 22.746094 4.535157 12.460938 7.816407 25.339844 9.792969 38.449219-10.113281 3.457031-17.804687 11.777344-20.464843 22.128906zm30.800781 24c-.296875-.050781-.589844-.082031-.890625-.097656-8.457032-.464844-15.074219-7.457031-15.074219-15.929687 0-8.46875 6.617187-15.460938 15.074219-15.925782.320312 0 .636718-.015625.953125-.046875 8.835937.015625 15.984375 7.195313 15.96875 16.03125-.019531 8.835938-7.195313 15.984375-16.03125 15.96875zm0 0"/><path d="m137.015625 128.269531c.011719-5.023437-.472656-10.035156-1.4375-14.960937-2.292969-12.769532-8.367187-24.558594-17.433594-33.839844-.144531-.171875-.300781-.332031-.464843-.480469-2.953126-2.746093-6.261719-5.085937-9.839844-6.953125.359375-.429687.800781-.800781 1.136718-1.230468 3.703126-5.03125 5.6875-11.121094 5.65625-17.367188.003907-1.574219-.125-3.140625-.390624-4.6875-1.671876-13.207031-12.765626-23.199219-26.074219-23.480469-13.214844.246094-24.269531 10.101563-26.03125 23.199219-.289063 1.621094-.433594 3.265625-.433594 4.910156 0 6.808594 2.394531 13.402344 6.769531 18.617188-3.570312 1.859375-6.871094 4.195312-9.816406 6.9375-.160156.148437-.3125.304687-.457031.46875-9.074219 9.28125-15.144531 21.074218-17.429688 33.851562-.976562 4.945313-1.460937 9.972656-1.449219 15.015625 0 4.417969 3.582032 8 8 8h81.695313c4.417969 0 8-3.582031 8-8zm-59.101563-77.082031c.5-5.382812 4.855469-9.59375 10.253907-9.917969 5.472656.359375 9.855469 4.675781 10.296875 10.144531.117187.65625.171875 1.328126.167968 2 .023438 2.832032-.867187 5.59375-2.542968 7.878907-1.804688 2.609375-4.75 4.195312-7.921875 4.261719-6.222657-.503907-10.882813-5.914063-10.464844-12.140626 0-.75.070313-1.492187.210937-2.226562zm-22.089843 69.082031c.175781-1.3125.390625-2.617187.640625-3.898437 1.675781-9.746094 6.289062-18.746094 13.222656-25.800782.132812-.117187.261719-.242187.378906-.375 9.996094-10 26.207032-10 36.207032 0 .117187.132813.242187.257813.375.375 6.941406 7.058594 11.554687 16.070313 13.230468 25.824219.25 1.273438.457032 2.570313.632813 3.875zm0 0"/><path d="m359.320312 136.269531h81.695313c4.417969 0 8-3.582031 8-8 .011719-5.023437-.472656-10.035156-1.4375-14.960937-2.292969-12.769532-8.367187-24.558594-17.433594-33.839844-.144531-.171875-.300781-.332031-.464843-.480469-2.953126-2.746093-6.261719-5.085937-9.839844-6.953125.359375-.429687.800781-.800781 1.136718-1.230468 3.703126-5.03125 5.6875-11.121094 5.65625-17.367188.003907-1.574219-.125-3.140625-.390624-4.6875-1.398438-13.296875-12.582032-23.410156-25.953126-23.46875-13.371093-.058594-24.640624 9.957031-26.152343 23.242188-.289063 1.621093-.433594 3.265624-.433594 4.914062 0 6.808594 2.394531 13.398438 6.769531 18.613281-3.570312 1.863281-6.871094 4.195313-9.816406 6.9375-.160156.148438-.3125.308594-.457031.472657-9.074219 9.277343-15.144531 21.070312-17.429688 33.847656-.972656 4.925781-1.457031 9.9375-1.449219 14.960937 0 4.417969 3.582032 8 8 8zm30.59375-85.082031c.203126-5.570312 4.808594-9.964844 10.382813-9.902344 5.574219.058594 10.085937 4.554688 10.167969 10.128906.117187.65625.171875 1.328126.167968 2 .023438 2.832032-.867187 5.59375-2.542968 7.878907-1.804688 2.609375-4.75 4.195312-7.921875 4.261719-6.222657-.503907-10.882813-5.914063-10.464844-12.140626 0-.75.070313-1.492187.210937-2.226562zm-21.449218 65.183594c1.675781-9.746094 6.289062-18.746094 13.222656-25.800782.132812-.117187.261719-.242187.378906-.375 9.996094-10 26.207032-10 36.207032 0 .117187.132813.242187.257813.375.375 6.941406 7.058594 11.554687 16.070313 13.230468 25.824219.25 1.273438.457032 2.570313.632813 3.875h-64.6875c.175781-1.3125.390625-2.617187.640625-3.898437zm0 0"/></svg>