<svg id="Capa_1" enable-background="new 0 0 512 512" height="512" viewBox="0 0 512 512" width="512" xmlns="http://www.w3.org/2000/svg"><g><path d="m503.754 88.532-112.821 56.737-4.999-2.62v-130.293l4.999-6.65c27.355 13.579 112.601 55.927 112.751 55.997 11.055 5.474 11.097 21.293.07 26.829z" fill="#fc5832"/><path d="m136.977 301.011-9.998 14.999v185.99c0 5.523 4.476 9.999 9.998 9.999h50.491v-210.988z" fill="#f5f2f1"/><path d="m247.958 316.01-9.998-14.999h-50.491v210.989h50.491c5.522 0 9.998-4.477 9.998-9.999z" fill="#e8e1de"/><path d="m375.936 211.016v-59.997l-125.774-29.54c-1.202-.304-2.438-.458-3.678-.458h-185.494v-79.997c0-5.523-4.476-9.999-9.998-9.999h-40.994c-5.522 0-9.998 4.477-9.998 9.999v129.993c0 5.523 4.476 9.999 9.998 9.999h116.98v104.995l9.998 14.999h100.983l9.998-14.999v-102.994z" fill="#3bc9ea"/><path d="m375.936 151.019v59.997l-127.978-27.999v102.995l-9.998 14.999h-50.491v-179.991h59.02c1.24 0 2.47.15 3.669.46z" fill="#13b8e5"/><ellipse cx="187.468" cy="60.523" fill="#d69a8b" rx="60.49" ry="60.497"/><path d="m247.958 60.523c0 33.358-27.135 60.497-60.49 60.497v-120.994c33.354 0 60.49 27.139 60.49 60.497z" fill="#c28678"/><path d="m390.933 5.706v491.295c0 8.28-6.719 14.999-14.997 14.999-8.279 0-14.997-6.72-14.997-14.999v-482.005c0-5.19 2.68-10.009 7.099-12.749 4.409-2.73 9.918-2.99 14.568-.68z" fill="#55696e"/><path d="m126.978 286.012h120.979v29.998h-120.979z" fill="#13b8e5"/><path d="m187.468 286.012h60.49v29.998h-60.49z" fill="#00a4dc"/></g></svg>