<svg xmlns="http://www.w3.org/2000/svg" width="20" height="20" viewBox="0 0 20 20">
  <g id="organisation" transform="translate(-1 -2)">
    <g id="Group_3641" data-name="Group 3641" transform="translate(14.548 3.639)">
      <path id="Path_967" data-name="Path 967" d="M43,7h.645V8.639H43Z" transform="translate(-43 -7)" fill="#4d5d7a"/>
    </g>
    <g id="Group_3642" data-name="Group 3642" transform="translate(17.774 3.639)">
      <path id="Path_968" data-name="Path 968" d="M53,7h.645V8.639H53Z" transform="translate(-53 -7)" fill="#4d5d7a"/>
    </g>
    <path id="Path_969" data-name="Path 969" d="M38,31.082V16h7.1V31.082" transform="translate(-25.065 -9.41)" fill="#3d98f7"/>
    <path id="Path_970" data-name="Path 970" d="M44,56h3.226v1.967H44Z" transform="translate(-29.129 -36.295)" fill="#f5b953"/>
    <path id="Path_971" data-name="Path 971" d="M26,42h3.871v6.557H26Z" transform="translate(-16.935 -26.885)" fill="#2b74ca"/>
    <path id="Path_972" data-name="Path 972" d="M4,41.164V31h7.1V41.164" transform="translate(-2.032 -19.492)" fill="#3d98f7"/>
    <g id="Group_3643" data-name="Group 3643" transform="translate(3.258 9.213)">
      <path id="Path_973" data-name="Path 973" d="M42,24h1.29v1.311H42Z" transform="translate(-31.032 -24)" fill="#fff"/>
      <path id="Path_974" data-name="Path 974" d="M52,24h1.29v1.311H52Z" transform="translate(-37.806 -24)" fill="#fff"/>
      <path id="Path_975" data-name="Path 975" d="M42,32h1.29v1.311H42Z" transform="translate(-31.032 -29.377)" fill="#fff"/>
      <path id="Path_976" data-name="Path 976" d="M52,32h1.29v1.311H52Z" transform="translate(-37.806 -29.377)" fill="#fff"/>
      <path id="Path_977" data-name="Path 977" d="M42,40h1.29v1.311H42Z" transform="translate(-31.032 -34.754)" fill="#fff"/>
      <path id="Path_978" data-name="Path 978" d="M52,40h1.29v1.311H52Z" transform="translate(-37.806 -34.754)" fill="#fff"/>
      <path id="Path_979" data-name="Path 979" d="M42,48h1.29v1.311H42Z" transform="translate(-31.032 -40.131)" fill="#fff"/>
      <path id="Path_980" data-name="Path 980" d="M52,48h1.29v1.311H52Z" transform="translate(-37.806 -40.131)" fill="#fff"/>
      <path id="Path_981" data-name="Path 981" d="M8,35H9.29v1.311H8Z" transform="translate(-8 -31.393)" fill="#fff"/>
      <path id="Path_982" data-name="Path 982" d="M18,35h1.29v1.311H18Z" transform="translate(-14.774 -31.393)" fill="#fff"/>
      <path id="Path_983" data-name="Path 983" d="M8,43H9.29v1.311H8Z" transform="translate(-8 -36.77)" fill="#fff"/>
      <path id="Path_984" data-name="Path 984" d="M18,43h1.29v1.311H18Z" transform="translate(-14.774 -36.77)" fill="#fff"/>
      <path id="Path_985" data-name="Path 985" d="M8,51H9.29v1.311H8Z" transform="translate(-8 -42.148)" fill="#fff"/>
      <path id="Path_986" data-name="Path 986" d="M18,51h1.29v1.311H18Z" transform="translate(-14.774 -42.148)" fill="#fff"/>
    </g>
    <path id="Path_987" data-name="Path 987" d="M40,13.311V12h5.806v1.311" transform="translate(-26.419 -6.721)" fill="#f5b953"/>
    <path id="Path_988" data-name="Path 988" d="M6,28.311V27h5.806v1.311" transform="translate(-3.387 -16.803)" fill="#f5b953"/>
    <ellipse id="Ellipse_16" data-name="Ellipse 16" cx="0.645" cy="0.984" rx="0.645" ry="0.984" transform="translate(14.226 2)" fill="#669e4f"/>
    <ellipse id="Ellipse_17" data-name="Ellipse 17" cx="0.645" cy="0.984" rx="0.645" ry="0.984" transform="translate(17.452 2)" fill="#669e4f"/>
    <g id="Group_3644" data-name="Group 3644" transform="translate(1 21.344)">
      <path id="Path_989" data-name="Path 989" d="M1,61H21v.656H1Z" transform="translate(-1 -61)" fill="#4d5d7a"/>
    </g>
    <g id="Group_3645" data-name="Group 3645" transform="translate(10.032 16.098)">
      <path id="Path_990" data-name="Path 990" d="M29,45h.645v.656H29Z" transform="translate(-29 -45)" fill="#fff"/>
    </g>
    <g id="Group_3646" data-name="Group 3646" transform="translate(11.323 16.098)">
      <path id="Path_991" data-name="Path 991" d="M33,45h.645v.656H33Z" transform="translate(-33 -45)" fill="#fff"/>
    </g>
    <g id="Group_3647" data-name="Group 3647" transform="translate(10.032 17.41)">
      <path id="Path_992" data-name="Path 992" d="M29,49h.645v.656H29Z" transform="translate(-29 -49)" fill="#fff"/>
    </g>
    <g id="Group_3648" data-name="Group 3648" transform="translate(11.323 17.41)">
      <path id="Path_993" data-name="Path 993" d="M33,49h.645v.656H33Z" transform="translate(-33 -49)" fill="#fff"/>
    </g>
    <g id="Group_3649" data-name="Group 3649" transform="translate(10.032 18.721)">
      <path id="Path_994" data-name="Path 994" d="M29,53h.645v.656H29Z" transform="translate(-29 -53)" fill="#fff"/>
    </g>
    <g id="Group_3650" data-name="Group 3650" transform="translate(11.323 18.721)">
      <path id="Path_995" data-name="Path 995" d="M33,53h.645v.656H33Z" transform="translate(-33 -53)" fill="#fff"/>
    </g>
    <g id="Group_3651" data-name="Group 3651" transform="translate(10.032 20.033)">
      <path id="Path_996" data-name="Path 996" d="M29,57h.645v.656H29Z" transform="translate(-29 -57)" fill="#fff"/>
    </g>
    <g id="Group_3652" data-name="Group 3652" transform="translate(11.323 20.033)">
      <path id="Path_997" data-name="Path 997" d="M33,57h.645v.656H33Z" transform="translate(-33 -57)" fill="#fff"/>
    </g>
    <g id="Group_3653" data-name="Group 3653" transform="translate(13.903 7.574)">
      <path id="Path_998" data-name="Path 998" d="M41,19h5.161v.656H41Z" transform="translate(-41 -19)" fill="#fff"/>
    </g>
  </g>
</svg>
