<svg xmlns="http://www.w3.org/2000/svg" width="20" height="20" viewBox="0 0 20 20">
  <g id="profile_icon" transform="translate(-52 -89.689)">
    <path id="Path_923" data-name="Path 923" d="M119.024,116.507h3.889v1.159h-3.889a1.305,1.305,0,0,0-1.3,1.3v3.889h-1.159v-3.889a2.47,2.47,0,0,1,2.462-2.462Zm11.182,0H134.1a2.47,2.47,0,0,1,2.463,2.463v3.889H135.4V118.97a1.305,1.305,0,0,0-1.3-1.3h-3.889v-1.159Zm6.356,13.644v3.889A2.47,2.47,0,0,1,134.1,136.5h-3.889v-1.159H134.1a1.305,1.305,0,0,0,1.3-1.3v-3.889h1.159Zm-13.644,6.356h-3.889a2.47,2.47,0,0,1-2.463-2.463v-3.889h1.159v3.889a1.305,1.305,0,0,0,1.3,1.3h3.889v1.159Z" transform="translate(-64.562 -26.818)" fill="#ffd500"/>
    <path id="Path_924" data-name="Path 924" d="M165.157,153.1h.243l1.414-.769.23-.9a5.842,5.842,0,0,1-1-1.624.508.508,0,0,1-.078.008c-.374,0-.744-.407-.826-.909a.794.794,0,0,1,.3-.855c-.317-1.611-.526-4.086,2.249-4.7a1.954,1.954,0,0,1,2.331,1.061,1.234,1.234,0,0,1,1.813.732,6.737,6.737,0,0,1,.049,2.985.858.858,0,0,1,.193.773,1.016,1.016,0,0,1-.81.909,5.63,5.63,0,0,1-1.1,1.616l.23.9h.021l1.373.769h.263a3.247,3.247,0,0,1,3.3,3.165v2.565h-13.5v-2.565a3.242,3.242,0,0,1,3.3-3.165Z" transform="translate(-106.608 -51.68)" fill="#e84f4f"/>
  </g>
</svg>
