<svg id="EV-Charger_icon" xmlns="http://www.w3.org/2000/svg" width="30" height="30" viewBox="0 0 30 30">
  <path id="Path_1564" data-name="Path 1564" d="M392.127,33.891h-5.648a.879.879,0,0,1,0-1.758h5.648a.879.879,0,0,1,0,1.758Z" transform="translate(-363.006 -30.25)" fill="#334a5e"/>
  <path id="Path_1565" data-name="Path 1565" d="M392.127,130.291h-5.648a.879.879,0,0,1,0-1.758h5.648a.879.879,0,0,1,0,1.758Z" transform="translate(-363.006 -121.002)" fill="#1f2a4d"/>
  <path id="Path_1566" data-name="Path 1566" d="M4.645,98.1H2.762A2.761,2.761,0,0,1,0,95.334V83.1a2.761,2.761,0,0,1,2.762-2.762h13.18a.879.879,0,1,1,0,1.758H2.762a1,1,0,0,0-1,1V95.334a1,1,0,0,0,1,1H4.645a.879.879,0,0,1,0,1.758Z" transform="translate(0 -75.627)" fill="#66a182"/>
  <path id="Path_1567" data-name="Path 1567" d="M85.386,245.707h-.107L76.318,241H72.8l-8.535,4.707v7.469a.879.879,0,0,0,.879.879H89.622a.879.879,0,0,0,.879-.879v-2.354A5.115,5.115,0,0,0,85.386,245.707Z" transform="translate(-60.501 -226.879)" fill="#5bc1eb"/>
  <path id="Path_1568" data-name="Path 1568" d="M255,254.055a.879.879,0,0,0,.879-.879v-2.354a5.115,5.115,0,0,0-5.115-5.115h-.107L241.692,241h-1.758v13.055Z" transform="translate(-225.875 -226.879)" fill="#418bb3"/>
  <path id="Path_1569" data-name="Path 1569" d="M265.476,11.172h-2.824a5.586,5.586,0,1,1,0-11.172h2.824a.879.879,0,0,1,.879.879v9.414a.879.879,0,0,1-.879.879Z" transform="translate(-242.004)" fill="#486a6f"/>
  <path id="Path_1570" data-name="Path 1570" d="M72.8,244.828V241H67.028a2.761,2.761,0,0,0-2.762,2.762v1.945h7.656A.879.879,0,0,0,72.8,244.828Z" transform="translate(-60.5 -226.879)" fill="#aae1ff"/>
  <path id="Path_1571" data-name="Path 1571" d="M269.934,241v3.828a.879.879,0,0,0,.879.879H278.9l-3.347-3.347a4.645,4.645,0,0,0-3.284-1.36Z" transform="translate(-254.118 -226.879)" fill="#5bc1eb"/>
  <path id="Path_1572" data-name="Path 1572" d="M116.17,393.006a3.7,3.7,0,1,1,3.7-3.7A3.707,3.707,0,0,1,116.17,393.006Z" transform="translate(-105.877 -363.006)" fill="#334a5e"/>
  <path id="Path_1573" data-name="Path 1573" d="M144.412,415.6a1.945,1.945,0,1,0,1.945,1.945A1.947,1.947,0,0,0,144.412,415.6Z" transform="translate(-134.119 -391.248)" fill="#486a6f"/>
  <circle id="Ellipse_43" data-name="Ellipse 43" cx="3.703" cy="3.703" r="3.703" transform="translate(18.828 22.594)" fill="#1f2a4d"/>
  <g id="Group_4591" data-name="Group 4591" transform="translate(15.062 5.586)">
    <circle id="Ellipse_44" data-name="Ellipse 44" cx="1.945" cy="1.945" r="1.945" transform="translate(5.523 18.766)" fill="#334a5e"/>
    <path id="Path_1574" data-name="Path 1574" d="M262.652,100.919h2.824a.879.879,0,0,0,.879-.879V95.333h-9.289a5.583,5.583,0,0,0,5.586,5.586Z" transform="translate(-257.066 -95.333)" fill="#334a5e"/>
  </g>
</svg>
