<svg xmlns="http://www.w3.org/2000/svg" width="30" height="30" viewBox="0 0 30 30">
  <path id="qr-code_icon" d="M0,5.625V1.172A1.172,1.172,0,0,1,1.172,0H5.625a1.172,1.172,0,1,1,0,2.344H2.344V5.625A1.172,1.172,0,1,1,0,5.625ZM28.828,0H24.375a1.172,1.172,0,1,0,0,2.344h3.281V5.625a1.172,1.172,0,1,0,2.344,0V1.172A1.172,1.172,0,0,0,28.828,0ZM5.625,27.656H2.344V24.375a1.172,1.172,0,1,0-2.344,0v4.453A1.172,1.172,0,0,0,1.172,30H5.625a1.172,1.172,0,1,0,0-2.344Zm23.2-4.453a1.172,1.172,0,0,0-1.172,1.172v3.281H24.375a1.172,1.172,0,0,0,0,2.344h4.453A1.172,1.172,0,0,0,30,28.828V24.375A1.172,1.172,0,0,0,28.828,23.2ZM13.975,5.771V12.8A1.172,1.172,0,0,1,12.8,13.975H5.771A1.172,1.172,0,0,1,4.6,12.8V5.771A1.172,1.172,0,0,1,5.771,4.6H12.8A1.172,1.172,0,0,1,13.975,5.771ZM11.631,6.943H6.943v4.688h4.688Zm13.184,7.031H17.783A1.172,1.172,0,0,1,16.611,12.8V5.771A1.172,1.172,0,0,1,17.783,4.6h7.031a1.172,1.172,0,0,1,1.172,1.172V12.8A1.172,1.172,0,0,1,24.814,13.975ZM23.643,6.943H18.955v4.688h4.688Zm-9.668,10.84v7.031A1.172,1.172,0,0,1,12.8,25.986H5.771A1.172,1.172,0,0,1,4.6,24.814V17.783a1.172,1.172,0,0,1,1.172-1.172H12.8A1.172,1.172,0,0,1,13.975,17.783Zm-2.344,1.172H6.943v4.688h4.688Zm11.675,5.522H19.292a1.172,1.172,0,0,1-1.172-1.172V19.292a1.172,1.172,0,0,1,1.172-1.172h4.014a1.172,1.172,0,0,1,1.172,1.172v4.014A1.172,1.172,0,0,1,23.306,24.478Zm-1.172-4.014h-1.67v1.67h1.67Zm0,0" fill="#fff"/>
</svg>
