<svg xmlns="http://www.w3.org/2000/svg" width="37.452" height="40" viewBox="0 0 37.452 40">
  <g id="redeem-points" transform="translate(-15.253 -7.583)">
    <path id="Path_1237" data-name="Path 1237" d="M117.361,183.654v9.951a.473.473,0,0,0,.473.473H136.4a.473.473,0,0,0,.473-.473v-9.951Z" transform="translate(-85.149 -146.827)" fill="#4671c6"/>
    <path id="Path_1238" data-name="Path 1238" d="M143.259,105.5l-.833-1.911a2,2,0,0,0-1.353-1.142,2.018,2.018,0,0,0-1.109-1.614l-1.871-.927a1.981,1.981,0,0,0-.793-.2l-.091,0a2,2,0,0,0-1.793,1.125,2,2,0,0,0-1.793-1.125l-.092,0a1.981,1.981,0,0,0-.793.2l-1.871.927a2.018,2.018,0,0,0-1.109,1.614,2,2,0,0,0-1.353,1.142l-.833,1.911a2,2,0,0,0,1.835,2.8h12.018a2,2,0,0,0,2-2A1.978,1.978,0,0,0,143.259,105.5Zm-13.853,1.236a.436.436,0,0,1-.4-.61l.833-1.911a.434.434,0,0,1,.111-.152,2.02,2.02,0,0,0,.373.564l1.985,2.109Zm2.733-3.858a2,2,0,0,0-.784-.419.438.438,0,0,1,.2-.211l1.871-.927a.434.434,0,0,1,.172-.045h.02a.438.438,0,0,1,.435.422l.132,2.959Zm4.635-1.18a.438.438,0,0,1,.435-.422h.02a.43.43,0,0,1,.172.045l1.871.927a.438.438,0,0,1,.2.211,2,2,0,0,0-.784.419l-2.049,1.779Zm4.65,5.038h-2.9l1.985-2.109a2.018,2.018,0,0,0,.373-.564.434.434,0,0,1,.111.152l.833,1.911a.436.436,0,0,1-.4.61Z" transform="translate(-93.524 -76.814)" fill="#f9a7a7"/>
    <path id="Path_1239" data-name="Path 1239" d="M161.682,170.384h4.636v12.628h-4.636Z" transform="translate(-122.109 -135.761)" fill="#e0ebfc"/>
    <path id="Path_1240" data-name="Path 1240" d="M133.021,156.835H113a.473.473,0,0,1-.473-.473v-4.4a.473.473,0,0,1,.473-.473h20.017a.473.473,0,0,1,.473.473v4.4A.473.473,0,0,1,133.021,156.835Z" transform="translate(-81.121 -120.008)" fill="#4671c6"/>
    <path id="Path_1241" data-name="Path 1241" d="M161.682,151.493h4.636v5.342h-4.636Z" transform="translate(-122.109 -120.008)" fill="#e0ebfc"/>
    <circle id="Ellipse_23" data-name="Ellipse 23" cx="5.076" cy="5.076" r="5.076" transform="translate(18.534 7.915)" fill="#eaa97d"/>
    <circle id="Ellipse_24" data-name="Ellipse 24" cx="3.624" cy="3.624" r="3.624" transform="translate(19.985 9.367)" fill="#ffea92"/>
    <path id="Path_1242" data-name="Path 1242" d="M38.412,18.4a5.408,5.408,0,1,1,5.408-5.408A5.414,5.414,0,0,1,38.412,18.4Zm0-10.151a4.743,4.743,0,1,0,4.743,4.743A4.749,4.749,0,0,0,38.412,8.247Z" transform="translate(-14.803)" fill="#3762cc"/>
    <path id="Path_1243" data-name="Path 1243" d="M50.81,21.409l.677,1.371a.322.322,0,0,0,.242.176l1.513.22a.322.322,0,0,1,.178.548l-1.095,1.067a.322.322,0,0,0-.093.285l.258,1.507a.322.322,0,0,1-.467.339l-1.353-.712a.322.322,0,0,0-.3,0l-1.353.712a.322.322,0,0,1-.467-.339l.258-1.507a.321.321,0,0,0-.093-.285l-1.095-1.067a.322.322,0,0,1,.178-.548l1.513-.22a.322.322,0,0,0,.242-.176l.677-1.371A.322.322,0,0,1,50.81,21.409Z" transform="translate(-26.912 -11.38)" fill="#eaa97d"/>
    <path id="Path_1244" data-name="Path 1244" d="M116.194,35.212a.822.822,0,0,0-.754-.451l-1.469.027a9.374,9.374,0,0,0-12.507-6.339.83.83,0,1,0,.609,1.545,7.714,7.714,0,0,1,10.179,4.825l-1.371.025a.831.831,0,0,0-.6,1.389l2.475,2.72a.831.831,0,0,0,.614.272h.041a.831.831,0,0,0,.625-.334l2.085-2.8A.831.831,0,0,0,116.194,35.212Z" transform="translate(-71.454 -16.85)" fill="#6bdddd"/>
    <circle id="Ellipse_25" data-name="Ellipse 25" cx="4.012" cy="4.012" r="4.012" transform="translate(15.585 14.695)" fill="#eaa97d"/>
    <circle id="Ellipse_26" data-name="Ellipse 26" cx="2.865" cy="2.865" r="2.865" transform="translate(16.732 15.843)" fill="#ffea92"/>
    <path id="Path_1245" data-name="Path 1245" d="M19.6,57.094a4.344,4.344,0,1,1,4.344-4.344A4.349,4.349,0,0,1,19.6,57.094Zm0-8.024a3.68,3.68,0,1,0,3.68,3.68A3.684,3.684,0,0,0,19.6,49.07Z" transform="translate(0 -34.043)" fill="#3762cc"/>
    <path id="Path_1246" data-name="Path 1246" d="M29.747,59.753l.535,1.084a.254.254,0,0,0,.191.139l1.2.174a.254.254,0,0,1,.141.433l-.865.844a.254.254,0,0,0-.073.225l.2,1.191a.254.254,0,0,1-.369.268l-1.07-.562a.254.254,0,0,0-.237,0l-1.07.562a.254.254,0,0,1-.369-.268l.2-1.191a.254.254,0,0,0-.073-.225l-.865-.844a.254.254,0,0,1,.141-.433l1.2-.174a.254.254,0,0,0,.191-.139l.535-1.084a.254.254,0,0,1,.456,0Z" transform="translate(-9.922 -43.387)" fill="#eaa97d"/>
    <g id="Group_4298" data-name="Group 4298" transform="translate(31.078 22.55)">
      <path id="Path_1247" data-name="Path 1247" d="M134.736,192.742H116.166a.806.806,0,0,1-.805-.805v-9.951a.332.332,0,0,1,.332-.332h19.516a.332.332,0,0,1,.332.332v9.951a.806.806,0,0,1-.805.805Zm-18.71-10.424v9.619a.141.141,0,0,0,.141.141h18.569a.141.141,0,0,0,.141-.141v-9.619Z" transform="translate(-114.559 -167.709)" fill="#3762cc"/>
      <path id="Path_1248" data-name="Path 1248" d="M131.353,155.5H111.336a.806.806,0,0,1-.805-.805v-4.4a.806.806,0,0,1,.805-.805h20.017a.806.806,0,0,1,.805.805v4.4A.806.806,0,0,1,131.353,155.5Zm-20.017-5.341a.141.141,0,0,0-.141.141v4.4a.141.141,0,0,0,.141.141h20.017a.141.141,0,0,0,.141-.141v-4.4a.141.141,0,0,0-.141-.141Z" transform="translate(-110.531 -140.889)" fill="#3762cc"/>
      <path id="Path_1249" data-name="Path 1249" d="M152.36,111.23a.333.333,0,0,1-.218-.081l-2.049-1.779a1.679,1.679,0,0,0-.654-.349.332.332,0,0,1-.214-.459.772.772,0,0,1,.358-.371l1.871-.927a.765.765,0,0,1,.3-.079h.027a.771.771,0,0,1,.775.74l.132,2.959a.332.332,0,0,1-.332.347Zm-2.163-2.6a2.323,2.323,0,0,1,.332.24l1.465,1.272-.1-2.186a.106.106,0,0,0-.1-.1h-.012a.1.1,0,0,0-.033.01Z" transform="translate(-142.773 -105.609)" fill="#3762cc"/>
      <path id="Path_1250" data-name="Path 1250" d="M181.359,111.23a.332.332,0,0,1-.332-.347l.132-2.959a.769.769,0,0,1,.767-.74h.028a.764.764,0,0,1,.31.079l1.872.928a.775.775,0,0,1,.358.37.332.332,0,0,1-.214.459,1.679,1.679,0,0,0-.654.349l-2.049,1.779A.333.333,0,0,1,181.359,111.23Zm.559-3.381a.105.105,0,0,0-.095.105l-.1,2.186,1.465-1.272a2.334,2.334,0,0,1,.332-.24l-1.552-.769a.1.1,0,0,0-.04-.01Z" transform="translate(-169.318 -105.609)" fill="#3762cc"/>
      <path id="Path_1251" data-name="Path 1251" d="M138.507,127.306h-2.9a.768.768,0,0,1-.7-1.075l.833-1.911a.762.762,0,0,1,.2-.268.332.332,0,0,1,.523.114,1.679,1.679,0,0,0,.312.471l1.985,2.109a.332.332,0,0,1-.242.56Zm-2.333-2.334-.665,1.525a.1.1,0,0,0-.009.041.1.1,0,0,0,.1.1h2.134l-1.458-1.549C136.243,125.054,136.208,125.014,136.174,124.972Z" transform="translate(-130.799 -119.605)" fill="#3762cc"/>
      <path id="Path_1252" data-name="Path 1252" d="M195.575,127.306h-2.9a.332.332,0,0,1-.242-.56l1.985-2.109a1.683,1.683,0,0,0,.312-.471.332.332,0,0,1,.523-.114.759.759,0,0,1,.2.268l.833,1.911a.768.768,0,0,1-.7,1.075Zm-2.134-.664h2.134a.1.1,0,0,0,.1-.1.105.105,0,0,0-.009-.042l-.665-1.524q-.051.062-.106.121Z" transform="translate(-178.753 -119.605)" fill="#3762cc"/>
      <path id="Path_1253" data-name="Path 1253" d="M139.759,106.963H127.741A2.334,2.334,0,0,1,125.6,103.7l.833-1.911a2.349,2.349,0,0,1,1.359-1.265,2.332,2.332,0,0,1,1.259-1.655l1.871-.927a2.313,2.313,0,0,1,.925-.239l.107,0a2.308,2.308,0,0,1,1.793.846,2.324,2.324,0,0,1,2.825-.6l1.871.927a2.331,2.331,0,0,1,1.259,1.655,2.349,2.349,0,0,1,1.359,1.265l.833,1.911a2.334,2.334,0,0,1-2.139,3.267Zm-7.8-8.6-.077,0a1.65,1.65,0,0,0-.659.171l-1.871.927a1.675,1.675,0,0,0-.926,1.348.332.332,0,0,1-.251.29,1.679,1.679,0,0,0-1.128.952l-.833,1.911a1.67,1.67,0,0,0,1.531,2.337h12.018a1.67,1.67,0,0,0,1.531-2.337l-.833-1.911a1.679,1.679,0,0,0-1.128-.952.332.332,0,0,1-.251-.29,1.675,1.675,0,0,0-.926-1.348l-1.871-.927a1.649,1.649,0,0,0-.661-.171l-.076,0a1.656,1.656,0,0,0-1.495.939.332.332,0,0,1-.6,0,1.655,1.655,0,0,0-1.495-.939Zm7.8,7.037h-2.9a.332.332,0,0,1-.242-.56l1.985-2.109a1.683,1.683,0,0,0,.312-.471.332.332,0,0,1,.523-.114.762.762,0,0,1,.2.269l.833,1.91a.768.768,0,0,1-.7,1.075Zm-2.134-.664h2.134a.1.1,0,0,0,.1-.1.106.106,0,0,0-.009-.042l-.665-1.524q-.051.062-.106.121Zm-6.981.664h-2.9a.768.768,0,0,1-.7-1.075l.833-1.911a.762.762,0,0,1,.2-.268.332.332,0,0,1,.523.114,1.68,1.68,0,0,0,.312.471l1.985,2.109a.332.332,0,0,1-.242.56Zm-2.333-2.334-.665,1.525a.1.1,0,0,0-.009.041.1.1,0,0,0,.1.1h2.134l-1.458-1.549C128.38,103.145,128.345,103.1,128.311,103.063Zm6.666.254a.332.332,0,0,1-.332-.347l.132-2.959a.769.769,0,0,1,.767-.74h.028a.764.764,0,0,1,.31.079l1.872.928a.775.775,0,0,1,.358.37.332.332,0,0,1-.214.459,1.679,1.679,0,0,0-.654.349l-2.049,1.779A.333.333,0,0,1,134.977,103.317Zm.559-3.381a.105.105,0,0,0-.095.105l-.1,2.186,1.465-1.272a2.332,2.332,0,0,1,.332-.24l-1.552-.769a.1.1,0,0,0-.04-.01Zm-.427.09h0Zm-2.586,3.291a.333.333,0,0,1-.218-.081l-2.049-1.779a1.68,1.68,0,0,0-.654-.349.332.332,0,0,1-.214-.459.772.772,0,0,1,.358-.371l1.871-.927a.765.765,0,0,1,.3-.079h.027a.771.771,0,0,1,.775.74l.132,2.959a.332.332,0,0,1-.332.347Zm-2.163-2.6a2.322,2.322,0,0,1,.332.24l1.465,1.272-.1-2.186a.106.106,0,0,0-.1-.1h-.012a.1.1,0,0,0-.033.01Z" transform="translate(-122.936 -97.696)" fill="#3762cc"/>
    </g>
  </g>
</svg>
