<svg xmlns="http://www.w3.org/2000/svg" width="16.875" height="18" viewBox="0 0 16.875 18">
  <g id="report_icon" transform="translate(-16)">
    <g id="Group_3877" data-name="Group 3877" transform="translate(19.937)">
      <g id="Group_3876" data-name="Group 3876">
        <path id="Path_1079" data-name="Path 1079" d="M136.947,8.2a.561.561,0,0,0-.512-.33h-2.25V.563A.563.563,0,0,0,133.623,0h-2.25a.563.563,0,0,0-.562.563V7.875h-2.25a.562.562,0,0,0-.423.933l3.938,4.5a.561.561,0,0,0,.846,0l3.938-4.5A.561.561,0,0,0,136.947,8.2Z" transform="translate(-127.998)" fill="#002341"/>
      </g>
    </g>
    <g id="Group_3879" data-name="Group 3879" transform="translate(16 12.375)">
      <g id="Group_3878" data-name="Group 3878">
        <path id="Path_1080" data-name="Path 1080" d="M30.625,352v3.375H18.25V352H16v4.5a1.125,1.125,0,0,0,1.125,1.125H31.75a1.124,1.124,0,0,0,1.125-1.125V352Z" transform="translate(-16 -352)" fill="#002341"/>
      </g>
    </g>
  </g>
</svg>
