<svg id="travel" xmlns="http://www.w3.org/2000/svg" width="15" height="15" viewBox="0 0 15 15">
  <path id="Path_1" data-name="Path 1" d="M137.334,352.125a.439.439,0,0,1-.586,0,.512.512,0,0,0-.7.743l1,1,1-1a.512.512,0,0,0-.7-.743Z" transform="translate(-131.915 -341.683)"/>
  <path id="Path_2" data-name="Path 2" d="M8.936,203.758H7.178v-.732A1.027,1.027,0,0,0,6.152,202H4.1a1.027,1.027,0,0,0-1.025,1.025v.732H1.318A1.32,1.32,0,0,0,0,205.076v4.688a1.32,1.32,0,0,0,1.318,1.318H8.936a1.32,1.32,0,0,0,1.318-1.318v-4.687A1.32,1.32,0,0,0,8.936,203.758Zm-4.98-.732a.147.147,0,0,1,.146-.146H6.152a.147.147,0,0,1,.146.146v.732H3.955Zm2.789,4.864L5.438,209.2a.439.439,0,0,1-.621,0L3.51,207.889a1.391,1.391,0,0,1,1.617-2.221,1.39,1.39,0,0,1,1.617,2.221Z" transform="translate(0 -196.082)"/>
  <path id="Path_3" data-name="Path 3" d="M422,59h.879v1.553H422Z" transform="translate(-409.637 -57.271)"/>
  <path id="Path_4" data-name="Path 4" d="M342,59h.879v1.553H342Z" transform="translate(-331.98 -57.271)"/>
  <path id="Path_5" data-name="Path 5" d="M322.439.879h3.516a.439.439,0,0,0,0-.879h-3.516a.439.439,0,0,0,0,.879Z" transform="translate(-312.566)"/>
  <path id="Path_6" data-name="Path 6" d="M287.42,142h-4.1A1.318,1.318,0,0,0,282,143.318v1.318h.674a2.2,2.2,0,0,1,2.2,2.2v4.834h1.816v.732a.439.439,0,0,0,.879,0v-.741a1.318,1.318,0,0,0,1.172-1.31v-7.031A1.318,1.318,0,0,0,287.42,142Z" transform="translate(-273.738 -137.84)"/>
</svg>
