<svg xmlns="http://www.w3.org/2000/svg" width="20" height="18.75" viewBox="0 0 20 18.75">
  <g id="cart" transform="translate(0 -16.004)">
    <path id="Path_943" data-name="Path 943" d="M107.8,80.229a.626.626,0,0,0-.48-.225H92.148a.624.624,0,0,0-.6.786l2,7.475a.624.624,0,0,0,.6.464h.031l11.925-.6a.627.627,0,0,0,.584-.511l1.25-6.875A.621.621,0,0,0,107.8,80.229Z" transform="translate(-87.949 -61.5)" fill="#ffc107"/>
    <g id="Group_3621" data-name="Group 3621" transform="translate(7.5 21.004)">
      <path id="Path_944" data-name="Path 944" d="M384.625,147.754a.625.625,0,0,1-.625-.625v-2.5a.625.625,0,1,1,1.25,0v2.5A.625.625,0,0,1,384.625,147.754Z" transform="translate(-376.5 -144.004)" fill="#fafafa"/>
      <path id="Path_945" data-name="Path 945" d="M288.625,147.754a.625.625,0,0,1-.625-.625v-2.5a.625.625,0,1,1,1.25,0v2.5A.625.625,0,0,1,288.625,147.754Z" transform="translate(-284.25 -144.004)" fill="#fafafa"/>
      <path id="Path_946" data-name="Path 946" d="M192.625,147.754a.625.625,0,0,1-.625-.625v-2.5a.625.625,0,1,1,1.25,0v2.5A.625.625,0,0,1,192.625,147.754Z" transform="translate(-192 -144.004)" fill="#fafafa"/>
    </g>
    <g id="Group_3622" data-name="Group 3622" transform="translate(0 16.004)">
      <circle id="Ellipse_14" data-name="Ellipse 14" cx="1.875" cy="1.875" r="1.875" transform="translate(6.25 15)" fill="#455a64"/>
      <circle id="Ellipse_15" data-name="Ellipse 15" cx="1.875" cy="1.875" r="1.875" transform="translate(13.75 15)" fill="#455a64"/>
      <path id="Path_947" data-name="Path 947" d="M16.875,29.754h-10a.624.624,0,0,1-.6-.464L3.057,17.254H.625a.625.625,0,1,1,0-1.25H3.537a.624.624,0,0,1,.6.464L7.355,28.5h9.52a.625.625,0,1,1,0,1.25Z" transform="translate(0 -16.004)" fill="#455a64"/>
    </g>
  </g>
</svg>
