<svg xmlns="http://www.w3.org/2000/svg" width="20" height="20.646" viewBox="0 0 20 20.646">
  <g id="wallet_icon" transform="translate(-8.008 0)">
    <path id="Path_1305" data-name="Path 1305" d="M50.641,177.58H34.922a.7.7,0,0,0-.7.7v1.887H51.343v-1.887A.7.7,0,0,0,50.641,177.58Z" transform="translate(-25.154 -170.419)" fill="#ffb125"/>
    <path id="Path_1306" data-name="Path 1306" d="M63.129,46.638,61.706,61.048a.659.659,0,0,1-.72.591l-7.213-.712a.659.659,0,0,1-.591-.72L54.605,45.8a.659.659,0,0,1,.72-.591l7.213.712A.659.659,0,0,1,63.129,46.638Z" transform="translate(-43.349 -43.379)" fill="#b6fa4c"/>
    <path id="Path_1307" data-name="Path 1307" d="M93.455,45.917,86.242,45.2a.659.659,0,0,0-.72.591l-.128,1.293a.655.655,0,0,1,.362-.068l7.213.712a.659.659,0,0,1,.591.72l-1.3,13.118a.658.658,0,0,0,.358-.522l1.424-14.411A.659.659,0,0,0,93.455,45.917Z" transform="translate(-74.265 -43.379)" fill="#a8e83a"/>
    <path id="Path_1308" data-name="Path 1308" d="M82.758,80.01,81.719,90.523a.4.4,0,0,0,.184.377,1.931,1.931,0,0,1,.778.94.4.4,0,0,0,.332.251l3.739.369a.4.4,0,0,0,.375-.181,1.932,1.932,0,0,1,.947-.769.4.4,0,0,0,.255-.334l1.039-10.513a.4.4,0,0,0-.184-.377,1.931,1.931,0,0,1-.778-.94.4.4,0,0,0-.332-.251l-3.739-.369a.4.4,0,0,0-.375.181,1.932,1.932,0,0,1-.947.769A.4.4,0,0,0,82.758,80.01Z" transform="translate(-70.737 -75.55)" fill="#7d0"/>
    <path id="Path_1309" data-name="Path 1309" d="M113,80.285a1.931,1.931,0,0,1-.778-.94.4.4,0,0,0-.332-.251l-3.739-.369a.4.4,0,0,0-.375.181,1.932,1.932,0,0,1-.947.769.4.4,0,0,0-.255.334l-.04.4,4.845.464a.4.4,0,0,1,.332.251,1.932,1.932,0,0,0,.778.94.4.4,0,0,1,.184.377l-.9,9.118c.039-.018.078-.034.118-.049a.4.4,0,0,0,.255-.334l1.039-10.513A.4.4,0,0,0,113,80.285Z" transform="translate(-94.559 -75.549)" fill="#73cc00"/>
    <path id="Path_1310" data-name="Path 1310" d="M86.354,12.413,78.2,24.38a.659.659,0,0,1-.915.173l-5.989-4.082a.659.659,0,0,1-.173-.915L79.276,7.59a.659.659,0,0,1,.915-.173L86.181,11.5A.659.659,0,0,1,86.354,12.413Z" transform="translate(-60.459 -7.007)" fill="#b6fa4c"/>
    <path id="Path_1311" data-name="Path 1311" d="M239.725,11.5l-5.989-4.082a.659.659,0,0,0-.915.173l-.7,1.024a.66.66,0,0,1,.175.084l5.989,4.082a.659.659,0,0,1,.173.915L231,24.637a.659.659,0,0,0,.741-.258L239.9,12.412A.659.659,0,0,0,239.725,11.5Z" transform="translate(-214.003 -7.007)" fill="#a8e83a"/>
    <path id="Path_1312" data-name="Path 1312" d="M125.193,57.5l-5.949,8.73a.4.4,0,0,0-.019.419,1.931,1.931,0,0,1,.233,1.2.4.4,0,0,0,.172.379l3.1,2.116a.4.4,0,0,0,.416.021,1.931,1.931,0,0,1,1.2-.221.4.4,0,0,0,.383-.171l5.949-8.73a.4.4,0,0,0,.019-.419,1.931,1.931,0,0,1-.233-1.2.4.4,0,0,0-.172-.379l-3.1-2.116a.4.4,0,0,0-.416-.021,1.931,1.931,0,0,1-1.2.221A.4.4,0,0,0,125.193,57.5Z" transform="translate(-106.683 -54.758)" fill="#7d0"/>
    <path id="Path_1313" data-name="Path 1313" d="M245.5,60.822a1.931,1.931,0,0,1-.233-1.2.4.4,0,0,0-.172-.379l-3.1-2.116a.4.4,0,0,0-.416-.021,1.931,1.931,0,0,1-1.2.221.4.4,0,0,0-.383.171l-.248.364,3.88,2.616a.4.4,0,0,1,.172.379,1.931,1.931,0,0,0,.233,1.2.4.4,0,0,1-.019.419L238.8,70.126a1.924,1.924,0,0,1,.351.016.4.4,0,0,0,.383-.171l5.949-8.73A.4.4,0,0,0,245.5,60.822Z" transform="translate(-221.481 -54.758)" fill="#73cc00"/>
    <circle id="Ellipse_31" data-name="Ellipse 31" cx="2.131" cy="2.131" r="2.131" transform="translate(17.06 6.038)" fill="#b6fa4c"/>
    <path id="Path_1314" data-name="Path 1314" d="M32.733,217.805H16.318a1.013,1.013,0,0,1-1.013-1.013V206.763a1.013,1.013,0,0,1,1.013-1.013H32.733a1.013,1.013,0,0,1,1.013,1.013v10.028A1.013,1.013,0,0,1,32.733,217.805Z" transform="translate(-7.003 -197.453)" fill="#ffb125"/>
    <path id="Path_1315" data-name="Path 1315" d="M403.628,205.749h-1.844a1.013,1.013,0,0,1,1.013,1.013v10.028a1.013,1.013,0,0,1-1.013,1.013h1.844a1.013,1.013,0,0,0,1.013-1.013V206.762A1.013,1.013,0,0,0,403.628,205.749Z" transform="translate(-377.897 -197.452)" fill="#ff901d"/>
    <path id="Path_1316" data-name="Path 1316" d="M353.566,307.189h-3.694a1.937,1.937,0,0,0-1.937,1.937h0a1.937,1.937,0,0,0,1.937,1.937h3.694a.367.367,0,0,0,.367-.367v-3.14A.367.367,0,0,0,353.566,307.189Z" transform="translate(-326.219 -294.802)" fill="#ff6d3a"/>
    <path id="Path_1317" data-name="Path 1317" d="M353.565,307.189h-1.85a.367.367,0,0,1,.367.367V310.2a.392.392,0,0,1-.392.392h-1.82a1.937,1.937,0,0,1-1.922-1.7,1.934,1.934,0,0,0,1.922,2.172h3.694a.367.367,0,0,0,.367-.367v-3.14A.367.367,0,0,0,353.565,307.189Z" transform="translate(-326.219 -294.802)" fill="#ed5729"/>
    <path id="Path_1318" data-name="Path 1318" d="M32.733,205.749H16.318a1.013,1.013,0,0,0-1.013,1.013v1.11H33.746v-1.11A1.013,1.013,0,0,0,32.733,205.749Z" transform="translate(-7.003 -197.452)" fill="#ff6d3a"/>
    <path id="Path_1319" data-name="Path 1319" d="M404.469,206.195a1.017,1.017,0,0,0-.124-.15l0,0a1.016,1.016,0,0,0-.148-.122l-.041-.026c-.021-.013-.042-.024-.064-.035l-.043-.021a1.009,1.009,0,0,0-.419-.091h-1.843a1.013,1.013,0,0,1,1.013,1.013v1.11h1.844v-1.11a1.009,1.009,0,0,0-.122-.483Q404.5,206.235,404.469,206.195Z" transform="translate(-377.898 -197.451)" fill="#ed5729"/>
    <path id="Path_1320" data-name="Path 1320" d="M16.317,454.16H32.732a1.013,1.013,0,0,0,1.013-1.013v-1.111H15.3v1.111A1.013,1.013,0,0,0,16.317,454.16Z" transform="translate(-7.002 -433.808)" fill="#ff6d3a"/>
    <path id="Path_1321" data-name="Path 1321" d="M31.9,452.035v1.112a.171.171,0,0,1-.172.168H16.318a1.013,1.013,0,0,1-1.013-1.013v.843a1.013,1.013,0,0,0,1.013,1.013H32.733l.06,0h.018l.041,0,.02,0,.04-.006.018,0,.056-.013h0l.024-.007a1,1,0,0,0,.117-.041l.045-.02.044-.022h0q.043-.023.083-.051h0c.023-.015.045-.032.067-.049l0,0q.033-.026.063-.056h0q.036-.034.068-.072h0a1.017,1.017,0,0,0,.092-.125l0,0c.01-.016.02-.033.029-.05h0a1.014,1.014,0,0,0,.063-.141l.006-.017.012-.038.006-.019c0-.013.007-.026.01-.039l0-.018c0-.019.008-.037.01-.057h0c0-.022.006-.045.008-.068v-.017c0-.023,0-.046,0-.069h0v-1.111H31.9Z" transform="translate(-7.003 -433.807)" fill="#ed5729"/>
    <circle id="Ellipse_32" data-name="Ellipse 32" cx="0.899" cy="0.899" r="0.899" transform="translate(22.822 13.425)" fill="#f2f2f2"/>
    <path id="Path_1322" data-name="Path 1322" d="M27.347,12.093h-.309V9.31a1.307,1.307,0,0,0-.554-1.068h0V7.864a1,1,0,0,0-1-1h-.231l.883-1.3a.954.954,0,0,0-.251-1.324L19.9.166a.953.953,0,0,0-1.324.251L13.405,8H11.966l.347-3.513a.1.1,0,0,1,.066-.087,2.237,2.237,0,0,0,1.091-.887.1.1,0,0,1,.1-.046l2.256.223a.294.294,0,0,0,.058-.586l-2.256-.223a.689.689,0,0,0-.652.316,1.644,1.644,0,0,1-.8.652.688.688,0,0,0-.444.58L11.375,8H11l.549-5.557a.365.365,0,0,1,.4-.327l4.56.45a.294.294,0,0,0,.058-.586l-4.56-.45a.954.954,0,0,0-1.042.855l-.442,4.479H9.768a1,1,0,0,0-1,1v.258A1.309,1.309,0,0,0,8.008,9.31V19.339a1.309,1.309,0,0,0,1.308,1.308H25.73a1.309,1.309,0,0,0,1.308-1.308V16.556h.309a.662.662,0,0,0,.661-.661v-3.14A.662.662,0,0,0,27.347,12.093Zm-1.86-4.638a.409.409,0,0,1,.408.408v.15A1.311,1.311,0,0,0,25.73,8H24.482l.373-.548h.632ZM19.061.748A.362.362,0,0,1,19.294.6a.37.37,0,0,1,.069-.006.362.362,0,0,1,.2.063l5.989,4.082a.365.365,0,0,1,.1.506L23.77,8h-.452l.923-1.354a.688.688,0,0,0,.032-.73,1.644,1.644,0,0,1-.2-1.015.688.688,0,0,0-.3-.66l-3.1-2.116a.688.688,0,0,0-.723-.035,1.645,1.645,0,0,1-1.016.188.7.7,0,0,0-.667.3L14.569,8h-.452Zm.13,5A2.428,2.428,0,0,0,16.772,8H15.281l3.472-5.095h0a.105.105,0,0,1,.086-.046h.013a2.237,2.237,0,0,0,1.383-.255.1.1,0,0,1,.108.007l3.1,2.116a.1.1,0,0,1,.046.1,2.236,2.236,0,0,0,.268,1.38.1.1,0,0,1-.006.109L22.606,8h-1A2.428,2.428,0,0,0,19.19,5.744ZM21.019,8H17.362a1.836,1.836,0,0,1,3.657,0ZM9.359,7.864a.409.409,0,0,1,.408-.408h.7L10.409,8H9.359ZM8.6,9.31a.72.72,0,0,1,.719-.719H25.73a.72.72,0,0,1,.719.719v.816H8.6Zm17.853,8.624H12.066a.294.294,0,1,0,0,.588H26.449v.816a.72.72,0,0,1-.719.719H9.316a.72.72,0,0,1-.719-.719v-.816h1.586a.294.294,0,1,0,0-.588H8.6V10.715H26.449v1.378h-2.8a2.234,2.234,0,0,0-2.007,1.257l0,.007-.009.019a2.218,2.218,0,0,0-.111.284h0a2.224,2.224,0,0,0-.1.662h0a2.234,2.234,0,0,0,2.231,2.231h2.8v1.378h0Zm.97-2.04a.073.073,0,0,1-.073.073H23.652a1.644,1.644,0,0,1-1.444-.86q-.019-.035-.036-.071-.035-.072-.062-.147a1.645,1.645,0,0,1,0-1.129q.028-.075.062-.147.017-.036.036-.071a1.644,1.644,0,0,1,1.444-.86h3.694a.073.073,0,0,1,.073.073Z"/>
    <path id="Path_1323" data-name="Path 1323" d="M369.275,325.627a1.194,1.194,0,1,0,1.194,1.194A1.195,1.195,0,0,0,369.275,325.627Zm0,1.8a.605.605,0,1,1,.605-.605A.606.606,0,0,1,369.275,327.426Z" transform="translate(-345.553 -312.496)"/>
  </g>
</svg>
