<svg xmlns="http://www.w3.org/2000/svg" width="24" height="24" viewBox="0 0 24 24">
  <g id="Group_3562" data-name="Group 3562" transform="translate(14934 -17310)">
    <path id="Path_918" data-name="Path 918" d="M20.485,3.515A12,12,0,0,0,3.514,20.485,12,12,0,0,0,20.485,3.515ZM19.49,19.491A10.594,10.594,0,1,1,4.509,4.509,10.594,10.594,0,1,1,19.49,19.491Zm0,0" transform="translate(-14933.999 17310)" fill="#14a751"/>
    <path id="Path_919" data-name="Path 919" d="M66.547,57.23a9.317,9.317,0,1,0,9.317,9.317A9.328,9.328,0,0,0,66.547,57.23Zm0,17.228a7.911,7.911,0,1,1,7.911-7.911A7.92,7.92,0,0,1,66.547,74.459Zm0,0" transform="translate(-14988.547 17255.453)" fill="#14a751"/>
    <path id="Path_920" data-name="Path 920" d="M218.831,124.8h-3.7a2.116,2.116,0,0,0-1.287-1.294v-3.725a.7.7,0,0,0-1.406,0v3.725a2.11,2.11,0,0,0,.7,4.1h0a2.107,2.107,0,0,0,1.985-1.4h3.706a.7.7,0,0,0,0-1.406Zm-5.195,1.193a.7.7,0,0,1-.5.205h0a.7.7,0,0,1,0-1.407h0a.7.7,0,0,1,.495.206h0A.7.7,0,0,1,213.636,125.994Zm0,0" transform="translate(-15135.138 17196.504)" fill="#14a751"/>
  </g>
</svg>
