<svg xmlns="http://www.w3.org/2000/svg" width="15.62" height="18" viewBox="0 0 15.62 18">
  <g id="Group_3634" data-name="Group 3634" transform="translate(-265 -184)">
    <g id="Group_3632" data-name="Group 3632" transform="translate(265.951 184)">
      <path id="Path_952" data-name="Path 952" d="M148.655,2.117a.517.517,0,0,1-.517-.517V1.033h-3.925V1.6a.517.517,0,0,1-1.033,0V.517A.517.517,0,0,1,143.7,0h4.958a.517.517,0,0,1,.517.517V1.6A.517.517,0,0,1,148.655,2.117Z" transform="translate(-140.287 0)" fill="#ff5252"/>
      <path id="Path_953" data-name="Path 953" d="M258.762,296.537a3.925,3.925,0,1,1,3.925-3.925A3.93,3.93,0,0,1,258.762,296.537Zm0-6.818a2.892,2.892,0,1,0,2.892,2.892A2.9,2.9,0,0,0,258.762,289.719Z" transform="translate(-248.018 -278.537)" fill="#ff5252"/>
      <path id="Path_954" data-name="Path 954" d="M69.21,157.322H62.434a.517.517,0,0,1-.514-.468l-1.033-10.846a.516.516,0,0,1,.514-.565H72.146a.517.517,0,1,1,0,1.033H61.969l.935,9.813H69.21a.517.517,0,0,1,0,1.033Z" transform="translate(-60.885 -140.33)" fill="#ff5252"/>
      <path id="Path_955" data-name="Path 955" d="M130.235,249.376a.516.516,0,0,1-.514-.468l-.51-5.351a.517.517,0,1,1,1.028-.1l.51,5.351a.517.517,0,0,1-.465.563Z" transform="translate(-126.807 -234.449)" fill="#ff5252"/>
      <path id="Path_956" data-name="Path 956" d="M292.8,246.352l-.051,0a.516.516,0,0,1-.463-.565l.23-2.324a.516.516,0,1,1,1.028.1l-.23,2.324A.517.517,0,0,1,292.8,246.352Z" transform="translate(-284.146 -234.452)" fill="#ff5252"/>
      <path id="Path_957" data-name="Path 957" d="M352.3,245.635h-.041a.516.516,0,0,1-.454-.758l.135-1.414a.516.516,0,1,1,1.028.1l-.153,1.607A.516.516,0,0,1,352.3,245.635Z" transform="translate(-341.523 -234.452)" fill="#ff5252"/>
      <path id="Path_958" data-name="Path 958" d="M314.693,351.7a.517.517,0,0,1-.365-.882l2.646-2.646a.517.517,0,1,1,.73.731l-2.646,2.646A.515.515,0,0,1,314.693,351.7Z" transform="translate(-305.271 -335.789)" fill="#ff5252"/>
      <path id="Path_959" data-name="Path 959" d="M317.337,351.7a.515.515,0,0,1-.365-.151l-2.646-2.646a.517.517,0,1,1,.73-.731l2.646,2.646a.517.517,0,0,1-.365.882Z" transform="translate(-305.271 -335.789)" fill="#ff5252"/>
    </g>
    <rect id="Rectangle_2479" data-name="Rectangle 2479" width="12.646" height="2.809" transform="translate(265.517 187.564)" fill="#fff"/>
    <g id="Group_3633" data-name="Group 3633" transform="translate(265 187.047)">
      <path id="Path_960" data-name="Path 960" d="M47.012,90.518H34.367A.516.516,0,0,1,33.85,90V87.193a.516.516,0,0,1,.517-.517H47.012a.517.517,0,0,1,.517.517V90A.517.517,0,0,1,47.012,90.518ZM34.883,89.485H46.5V87.709H34.883Z" transform="translate(-33.85 -86.676)" fill="#ff5252"/>
      <path id="Path_961" data-name="Path 961" d="M214.217,247.752a.517.517,0,0,1-.517-.517v-5.41a.517.517,0,1,1,1.033,0v5.41A.517.517,0,0,1,214.217,247.752Z" transform="translate(-207.377 -235.873)" fill="#ff5252"/>
    </g>
  </g>
</svg>
