<svg xmlns="http://www.w3.org/2000/svg" width="12.319" height="18" viewBox="0 0 12.319 18">
  <g id="XMLID_272_" transform="translate(-77.787 0.001)">
    <path id="XMLID_276_" d="M126.351,218.185a6.76,6.76,0,0,0,.055-3.057c-.28-1.328-.664-2.99-.71-3.194a1.172,1.172,0,0,0-.838-.875l-4.587.756a1.052,1.052,0,0,0,.023,2.082,1.03,1.03,0,0,0,.315,0l1.908-.311a.305.305,0,0,1,.336.242.293.293,0,0,1-.242.337l-1.908.311a1.189,1.189,0,0,1-.4.009,1.749,1.749,0,0,1-2.6,1.326,1.747,1.747,0,0,1-.82.6,1.72,1.72,0,0,1-1.265-.046l1.033,3.006a2.929,2.929,0,0,0,2.771,1.978h3.851a2.929,2.929,0,0,0,2.836-2.2Z" transform="translate(-36.448 -203.353)" fill="#388e3c"/>
    <path id="XMLID_273_" d="M80.239,12.508a1.169,1.169,0,0,0,.781-1.164,1.169,1.169,0,0,0,2.262-.364,1.639,1.639,0,0,1,.446-3.1l1.1-.181,2.82-.465L88.8,2.278a1.32,1.32,0,0,0-2.571-.6L84.847,7.6,82.57.9a1.32,1.32,0,0,0-2.5.848l1.3,3.819.289.852a1.164,1.164,0,0,0-1.922,1.209l.189.549a1.178,1.178,0,0,0-.967-.511,1.15,1.15,0,0,0-.382.065,1.173,1.173,0,0,0-.722,1.494l.893,2.566A1.172,1.172,0,0,0,80.239,12.508Z" transform="translate(0 0)" fill="#388e3c"/>
  </g>
</svg>
