<svg xmlns="http://www.w3.org/2000/svg" width="15" height="15" viewBox="0 0 15 15">
  <g id="lost" opacity="0.5">
    <path id="Path_1" data-name="Path 1" d="M27.319,106.625a6.875,6.875,0,0,0,6.694-5.312,6.874,6.874,0,0,0-13.389,0A6.875,6.875,0,0,0,27.319,106.625Zm0,0" transform="translate(-19.819 -92.25)" fill="#f6b382"/>
    <g id="Group_1" data-name="Group 1">
      <path id="Path_2" data-name="Path 2" d="M108.886,223.922a4.412,4.412,0,0,0-2.912,1.1l-.47.412.825.939.47-.412a3.169,3.169,0,0,1,4.173,0l.47.412.825-.939-.47-.413A4.408,4.408,0,0,0,108.886,223.922Zm0,0" transform="translate(-101.383 -215.175)" fill="#ef6907"/>
      <path id="Path_3" data-name="Path 3" d="M7.5,0A7.5,7.5,0,1,0,15,7.5,7.508,7.508,0,0,0,7.5,0Zm0,13.75A6.25,6.25,0,1,1,13.75,7.5,6.257,6.257,0,0,1,7.5,13.75Zm0,0" fill="#ef6907"/>
      <path id="Path_4" data-name="Path 4" d="M112,144h1.25v1.25H112Zm0,0" transform="translate(-107.625 -138.375)" fill="#ef6907"/>
      <path id="Path_5" data-name="Path 5" d="M240,144h1.25v1.25H240Zm0,0" transform="translate(-230.625 -138.375)" fill="#ef6907"/>
    </g>
  </g>
</svg>
