<svg xmlns="http://www.w3.org/2000/svg" xmlns:xlink="http://www.w3.org/1999/xlink" width="35.2" height="32" viewBox="0 0 35.2 32">
  <defs>
    <clipPath id="clip-path">
      <rect id="Rectangle_1084" data-name="Rectangle 1084" width="35.2" height="32" transform="translate(78 244)" fill="#fff"/>
    </clipPath>
  </defs>
  <g id="default_wallet_icon" transform="translate(-78 -244)" clip-path="url(#clip-path)">
    <g id="gift_1_" data-name="gift (1)" transform="translate(79.585 244)">
      <path id="Path_473" data-name="Path 473" d="M28.512,11.73a.289.289,0,0,0,.322,0c2.622-1.752,1.857-3.293,1.127-3.527a1.212,1.212,0,0,0-.369-.061.928.928,0,0,0-.722.341.287.287,0,0,1-.218.1.271.271,0,0,1-.2-.087.97.97,0,0,0-.726-.349,1.113,1.113,0,0,0-.34.056C26.654,8.436,25.89,9.978,28.512,11.73Z" transform="translate(-9.608 -2.946)" fill="#ff5f7b"/>
      <path id="Path_474" data-name="Path 474" d="M26.576,12.2a2.022,2.022,0,0,0,2.246,0,6.669,6.669,0,0,0,2.027-1.983,3.5,3.5,0,0,0,.538-2.325,2.812,2.812,0,0,0-1.871-2.309,2.948,2.948,0,0,0-.9-.144,2.66,2.66,0,0,0-.949.172,2.6,2.6,0,0,0-.918-.167,2.85,2.85,0,0,0-.867.139,2.812,2.812,0,0,0-1.872,2.309,3.5,3.5,0,0,0,.538,2.325A6.667,6.667,0,0,0,26.576,12.2Zm-.165-4.967a1.113,1.113,0,0,1,.34-.056.97.97,0,0,1,.726.349.271.271,0,0,0,.2.087.287.287,0,0,0,.218-.1.928.928,0,0,1,.722-.341,1.216,1.216,0,0,1,.369.061c.73.234,1.494,1.775-1.127,3.527a.289.289,0,0,1-.322,0C24.916,9,25.68,7.462,26.411,7.229Z" transform="translate(-8.633 -1.972)"/>
      <path id="Path_475" data-name="Path 475" d="M40.8,5.762a.323.323,0,0,0,.363,0c2.185-1.483,1.537-2.782.918-2.981a1.032,1.032,0,0,0-.315-.052.783.783,0,0,0-.571.241.322.322,0,0,1-.23.1.33.33,0,0,1-.229-.093.8.8,0,0,0-.564-.241.952.952,0,0,0-.29.048C39.266,2.98,38.618,4.279,40.8,5.762Z" transform="translate(-14.144 -0.997)" fill="#ffb8a7"/>
      <path id="Path_476" data-name="Path 476" d="M38.856,6.221a2.055,2.055,0,0,0,2.308,0c2.223-1.509,2.359-3.089,2.243-3.9A2.655,2.655,0,0,0,41.637.158a2.767,2.767,0,0,0-.843-.135,2.53,2.53,0,0,0-.805.131A2.491,2.491,0,0,0,39.2.027a2.682,2.682,0,0,0-.817.13,2.656,2.656,0,0,0-1.77,2.167C36.5,3.132,36.633,4.712,38.856,6.221Zm.055-4.414a.948.948,0,0,1,.29-.048A.8.8,0,0,1,39.765,2a.331.331,0,0,0,.229.093.322.322,0,0,0,.23-.1.784.784,0,0,1,.571-.241,1.032,1.032,0,0,1,.315.052c.619.2,1.267,1.5-.918,2.981a.323.323,0,0,1-.363,0C37.644,3.305,38.292,2.006,38.911,1.807Z" transform="translate(-13.17 -0.023)"/>
      <path id="Path_477" data-name="Path 477" d="M40.45,22.825c1.338-1.84.462-3.243-.386-3.514a1.863,1.863,0,0,0-.569-.093,1.421,1.421,0,0,0-1.053.459.542.542,0,0,1-.394.17.551.551,0,0,1-.388-.161,1.459,1.459,0,0,0-1.045-.46,1.708,1.708,0,0,0-.524.085c-.848.271-1.724,1.674-.386,3.514H40.45Z" transform="translate(-12.606 -6.933)" fill="#ffb8a7"/>
      <g id="Group_2102" data-name="Group 2102" transform="translate(12.438 17.623)">
        <path id="Path_478" data-name="Path 478" d="M24.846,27.56h-1.5l-3.912,5.75v6.806h5.412Z" transform="translate(-19.434 -27.56)" fill="#fff"/>
        <rect id="Rectangle_1085" data-name="Rectangle 1085" width="5.412" height="12.556" transform="translate(12.448)" fill="#fff"/>
      </g>
      <path id="Path_479" data-name="Path 479" d="M31.2,21.261H29.846a4.208,4.208,0,0,0,.381-2.376A3.392,3.392,0,0,0,27.987,16.1a3.6,3.6,0,0,0-1.1-.176,3.147,3.147,0,0,0-1.455.353,3.08,3.08,0,0,0-1.424-.345,3.447,3.447,0,0,0-1.051.169,3.39,3.39,0,0,0-2.242,2.785,4.207,4.207,0,0,0,.381,2.376H17.518l1.319-1.953a.864.864,0,0,0-.234-1.2L14.028,15.02a.866.866,0,0,0-1.2.234l-1.592,2.36a3.053,3.053,0,0,0-4.13.9,5.987,5.987,0,0,0-.825,1.952,5.956,5.956,0,0,0-1.511-1.537,3.058,3.058,0,0,0-3.42,5.07,6.018,6.018,0,0,0,1.993.835,5.921,5.921,0,0,0-1.5,1.487,3.057,3.057,0,0,0,.714,4.167L.9,32.931a.866.866,0,0,0,.234,1.2l4.576,3.087a.862.862,0,0,0,.484.148.834.834,0,0,0,.7-.382l3.813-5.678v5.11a.893.893,0,0,0,.9.861H31.2a.832.832,0,0,0,.83-.861V22.132A.84.84,0,0,0,31.2,21.261Zm-.9,14.288H24.886V22.993H30.3Zm-17.86-6.806,3.912-5.75h1.5V35.549H12.438V28.742ZM2.82,33.182l3.33-4.935L9.29,30.366,5.96,35.3Zm.25-4.9a1.317,1.317,0,0,1,.2-.995,6.1,6.1,0,0,1,2.745-1.939L5.2,26.56h0L3.522,29.045A1.316,1.316,0,0,1,3.07,28.28ZM1.958,20.718A1.326,1.326,0,0,1,3.8,20.361a6.373,6.373,0,0,1,2.029,2.975q-.131,0-.273,0a6.027,6.027,0,0,1-3.24-.78A1.328,1.328,0,0,1,1.958,20.718Zm7.683-1.824a1.315,1.315,0,0,1,.623.158L7.758,22.766a6.131,6.131,0,0,1,.782-3.288A1.326,1.326,0,0,1,9.641,18.894Zm7.277.165L13.649,23.9l-3.141-2.119,3.269-4.845ZM9.539,23.222l3.141,2.119L10.258,28.93,7.118,26.811Zm13.946-5.476a1.712,1.712,0,0,1,.524-.086,1.459,1.459,0,0,1,1.045.46.551.551,0,0,0,.388.161.542.542,0,0,0,.394-.17,1.42,1.42,0,0,1,1.053-.458,1.862,1.862,0,0,1,.569.092c.847.271,1.723,1.674.386,3.514H23.1C21.762,19.421,22.638,18.018,23.485,17.746Zm-3.9,5.246h3.572V35.549H19.582Z" transform="translate(0 -5.369)"/>
      <g id="Group_2103" data-name="Group 2103" transform="translate(1.731 13.525)">
        <rect id="Rectangle_1086" data-name="Rectangle 1086" width="3.572" height="12.556" transform="translate(17.851 4.098)" fill="#86d3d6"/>
        <path id="Path_480" data-name="Path 480" d="M6.8,26.3A6.371,6.371,0,0,0,4.772,23.32a1.326,1.326,0,1,0-1.483,2.2,6.026,6.026,0,0,0,3.24.78Q6.671,26.3,6.8,26.3Z" transform="translate(-2.705 -21.854)" fill="#86d3d6"/>
        <path id="Path_481" data-name="Path 481" d="M6.911,32.452l.819-1.215a6.1,6.1,0,0,0-2.745,1.939,1.326,1.326,0,0,0,.249,1.759l1.676-2.484Z" transform="translate(-3.444 -24.786)" fill="#86d3d6"/>
        <path id="Path_482" data-name="Path 482" d="M14.627,21.314a1.324,1.324,0,0,0-1.724.427,6.133,6.133,0,0,0-.782,3.288Z" transform="translate(-6.095 -21.157)" fill="#86d3d6"/>
      </g>
      <g id="Group_2104" data-name="Group 2104" transform="translate(2.82 11.572)">
        <rect id="Rectangle_1087" data-name="Rectangle 1087" width="5.954" height="3.789" transform="translate(6.471 13.425) rotate(124.006)" fill="#fff"/>
        <rect id="Rectangle_1088" data-name="Rectangle 1088" width="3.789" height="5.845" transform="translate(10.957 0) rotate(34.006)" fill="#fff"/>
      </g>
      <rect id="Rectangle_1089" data-name="Rectangle 1089" width="4.33" height="3.789" transform="translate(7.118 21.441) rotate(-55.994)" fill="#86d3d6"/>
    </g>
  </g>
</svg>
