<svg xmlns="http://www.w3.org/2000/svg" width="30" height="30" viewBox="0 0 30 30">
  <g id="Okaya-Solar_icon" transform="translate(-4.75 -4.75)">
    <g id="Group_4592" data-name="Group 4592" transform="translate(6.856 27.041)">
      <path id="Path_1575" data-name="Path 1575" d="M34.822,91.5h1.542v2.794H34.822Z" transform="translate(-29.201 -91.5)" fill="#ff9800"/>
      <path id="Path_1576" data-name="Path 1576" d="M12.947,91.5h1.542v2.794H12.947Z" transform="translate(-12.947 -91.5)" fill="#ff9800"/>
    </g>
    <path id="Path_1577" data-name="Path 1577" d="M47.591,105.672H42.367a.45.45,0,0,1,0-.9h4.775v-2.7a.45.45,0,0,1,.45-.45h8.694a.45.45,0,0,1,0,.9H48.041v2.7a.45.45,0,0,1-.45.45Z" transform="translate(-27.617 -71.982)" fill="#fdd82e"/>
    <path id="Path_1578" data-name="Path 1578" d="M39.5,112.5h3.414v1.542H39.5Z" transform="translate(-25.821 -80.063)" fill="#ff9800"/>
    <path id="Path_1579" data-name="Path 1579" d="M0,0H19.079V2.313H0Z" transform="translate(29.512 15.671) rotate(90)" fill="#eaeaf0"/>
    <path id="Path_1580" data-name="Path 1580" d="M84.146,109.5h6.409v2.056H84.146Z" transform="translate(-58.994 -77.834)" fill="#0e8bce"/>
    <path id="Path_1581" data-name="Path 1581" d="M90.616,50.1H93.7v7.217H90.616Z" transform="translate(-63.802 -33.694)" fill="#0e8bce"/>
    <path id="Path_1582" data-name="Path 1582" d="M51.193,24.19l-1.539,2.57-.5.835-1.269,2.122-.5.833-1.269,2.12-.5.835-1.269,2.122-.5.833-1.5,2.505H26.88l1.539-2.572.5-.833,1.272-2.12.5-.835,1.269-2.122.5-.833,1.269-2.12.5-.835,1.5-2.505Z" transform="translate(-16.443 -14.445)" fill="#3ba9fd"/>
    <path id="Path_1583" data-name="Path 1583" d="M53.607,27.595l.5-.835a.437.437,0,0,0-.229-.064H49.431l1.362-2.274a.418.418,0,0,0,.062-.231h-.974l-1.5,2.505H44.315l1.362-2.274a.443.443,0,0,0,.064-.231h-.974l-1.5,2.505H38.677l-.5.835a.437.437,0,0,0,.229.064H42.73L41.5,29.65H36.909l-.5.833a.42.42,0,0,0,.231.067h4.322l-1.231,2.056H35.139l-.5.835a.437.437,0,0,0,.229.064h4.322L37.96,35.56H33.368l-.5.833a.42.42,0,0,0,.231.067h4.322l-1.362,2.274a.443.443,0,0,0-.064.231h.974l1.5-2.505h4.068l-1.362,2.274a.443.443,0,0,0-.064.231h.974l1.5-2.505H48.3l.5-.833a.42.42,0,0,0-.231-.067H44.122L45.353,33.5h4.715l.5-.835a.437.437,0,0,0-.229-.064H45.893l1.231-2.056h4.713l.5-.833a.42.42,0,0,0-.231-.067H47.661l1.231-2.056ZM43.076,35.56H39.009L40.24,33.5H44.3Zm1.768-2.955H40.777l1.231-2.056h4.068Zm1.768-2.955H42.547l1.231-2.056h4.065Z" transform="translate(-20.894 -14.445)" fill="#eaeaf0"/>
    <g id="Group_4593" data-name="Group 4593" transform="translate(4.75 4.75)">
      <path id="Path_1584" data-name="Path 1584" d="M21.7,14.129a.45.45,0,0,1-.45-.45V5.2a.45.45,0,1,1,.9,0v8.48a.45.45,0,0,1-.45.45Z" transform="translate(-17.01 -4.75)" fill="#ff9800"/>
      <path id="Path_1585" data-name="Path 1585" d="M10.036,16.481a.45.45,0,0,1-.317-.768l5.995-5.995a.45.45,0,1,1,.636.636l-6,5.994A.448.448,0,0,1,10.036,16.481Z" transform="translate(-8.345 -8.344)" fill="#ff9800"/>
      <path id="Path_1586" data-name="Path 1586" d="M13.679,22.149H5.2a.45.45,0,1,1,0-.9h8.48a.45.45,0,1,1,0,.9Z" transform="translate(-4.75 -17.01)" fill="#ff9800"/>
      <path id="Path_1587" data-name="Path 1587" d="M15.972,16.422a.448.448,0,0,1-.318-.133L9.66,10.294a.45.45,0,1,1,.635-.635l6,5.995a.45.45,0,0,1-.318.768Z" transform="translate(-8.285 -8.285)" fill="#ff9800"/>
    </g>
    <circle id="Ellipse_45" data-name="Ellipse 45" cx="3.084" cy="3.084" r="3.084" transform="translate(6.356 6.356)" fill="#fdd82e"/>
    <path id="Path_1588" data-name="Path 1588" d="M6.981,97.5H17.21v6.167H6.981Z" transform="translate(-1.658 -68.917)" fill="#fdd82e"/>
    <path id="Path_1589" data-name="Path 1589" d="M11.68,108.505a.45.45,0,0,1-.45-.45V106.45a.45.45,0,0,1,.9,0v1.606a.449.449,0,0,1-.45.45Z" transform="translate(-4.815 -75.233)" fill="#ff9800"/>
    <path id="Path_1590" data-name="Path 1590" d="M24.006,105.671a.441.441,0,0,1-.147-.026.449.449,0,0,1-.278-.572l.339-.976h-.459a.449.449,0,0,1-.425-.6l.546-1.574a.45.45,0,1,1,.85.294l-.339.976h.459a.449.449,0,0,1,.425.6l-.546,1.575A.45.45,0,0,1,24.006,105.671Z" transform="translate(-13.569 -71.981)" fill="#ff9800"/>
    <path id="Path_1591" data-name="Path 1591" d="M76.712,115.5H86.941v1.542H76.712Z" transform="translate(-53.471 -82.292)" fill="#eaeaf0"/>
  </g>
</svg>
